<?xml version="1.0" encoding="utf-8"?>
<!-- Generator: Adobe Illustrator 19.0.0, SVG Export Plug-In . SVG Version: 6.00 Build 0)  -->
<svg version="1.1" id="Capa_1" xmlns="http://www.w3.org/2000/svg" xmlns:xlink="http://www.w3.org/1999/xlink" x="0px" y="0px"
	 viewBox="0 0 884.2 706.9" style="enable-background:new 0 0 884.2 706.9;" xml:space="preserve">
<style type="text/css">
	.st0{fill:none;stroke:#DCEFFC;stroke-width:3;stroke-miterlimit:10;}
	.st1{fill:#DCEFFC;}
	.st2{opacity:0.3;fill:none;stroke:#8AA3B9;stroke-width:4;stroke-linecap:round;stroke-linejoin:round;stroke-miterlimit:10;}
	.st3{fill:#DCEFFC;stroke:#DCEFFC;stroke-miterlimit:10;}
	.st4{fill:#DBEEFB;}
	.st5{clip-path:url(#SVGID_2_);}
	.st6{fill:#EDEFEF;}
	.st7{opacity:0.5;clip-path:url(#SVGID_4_);}
	.st8{fill:#FFFFFF;}
	.st9{fill:none;stroke:#FFFFFF;stroke-width:1.2308;stroke-miterlimit:10;}
	.st10{opacity:0.3;fill:none;stroke:#8AA3B9;stroke-width:5;stroke-linecap:round;stroke-linejoin:round;stroke-miterlimit:10;}
	.st11{fill:none;stroke:#FFFFFF;stroke-width:2.8794;stroke-linecap:round;stroke-linejoin:round;stroke-miterlimit:10;}
	.st12{fill:none;stroke:#FFFFFF;stroke-width:6.4931;stroke-linecap:round;stroke-linejoin:round;stroke-miterlimit:10;}
	.st13{fill:#E3FFF9;}
	.st14{fill:none;stroke:#8AA3B9;stroke-width:3;stroke-linecap:round;stroke-linejoin:round;stroke-miterlimit:10;}
	.st15{fill:#FFFFFF;stroke:#FFFFFF;stroke-width:5.3433;stroke-linecap:round;stroke-linejoin:round;stroke-miterlimit:10;}
	.st16{fill:none;stroke:#8AA3B9;stroke-width:5;stroke-linecap:round;stroke-linejoin:round;stroke-miterlimit:10;}
	.st17{fill:#00D0AD;stroke:#00D0AD;stroke-width:4.361;stroke-linecap:round;stroke-linejoin:round;stroke-miterlimit:10;}
	.st18{fill:none;stroke:#FFFFFF;stroke-width:2;stroke-linecap:round;stroke-linejoin:round;stroke-miterlimit:10;}
	.st19{fill:#8AA3B9;}
	.st20{fill:#1F8CD4;}
	.st21{fill:#E6BC19;}
	.st22{fill:#F5C91B;}
	.st23{fill:#FFDDE0;}
	.st24{fill:#0D3F5C;}
	.st25{opacity:0.2;fill:#FF5663;}
	.st26{fill:#F9A7A2;}
	.st27{fill:#F5C91B;stroke:#F5C91B;stroke-miterlimit:10;}
	.st28{fill:#F9C7C9;}
	.st29{fill:#BF9477;}
	.st30{fill:#FF5663;}
	.st31{fill:none;stroke:#8AA3B9;stroke-width:2;stroke-linecap:round;stroke-linejoin:round;stroke-miterlimit:10;}
	.st32{fill:#D5A782;stroke:#D5A782;stroke-width:0.5;stroke-miterlimit:10;}
	.st33{fill:none;stroke:#FFFFFF;stroke-width:1.558;stroke-linecap:round;stroke-linejoin:round;stroke-miterlimit:10;}
	.st34{fill:none;stroke:#00D0AD;stroke-width:1.5558;stroke-linecap:round;stroke-miterlimit:10;}
	.st35{fill:#D5A782;}
	.st36{fill:#D39184;}
	.st37{fill:#092D42;}
	.st38{fill:#EF888D;}
	.st39{clip-path:url(#SVGID_6_);}
	.st40{opacity:0.2;}
	.st41{fill:#239EEF;stroke:#239EEF;stroke-miterlimit:10;}
</style>
<g>
	<rect x="787.4" y="182.9" class="st0" width="35.9" height="23"/>
	<rect x="833.7" y="205.8" class="st0" width="35.9" height="23"/>
	<rect x="835.4" y="243.5" class="st0" width="35.9" height="23"/>
	<g>
		<g>
			<path class="st1" d="M808.2,213.1c4.2,6.6,10.2,13.3,18.9,11.6c1.3-0.2,0.7-2.2-0.5-1.9c-7.7,1.5-12.9-4.9-16.6-10.7
				C809.3,211,807.5,212,808.2,213.1L808.2,213.1z"/>
		</g>
	</g>
	<g>
		<g>
			<path class="st1" d="M822.8,220.8c1.8,1.4,3.6,2.9,5.4,4.3c0.1-0.5,0.1-1,0.2-1.6c-1.6,1.1-3.1,2.4-4.5,3.8
				c-0.9,0.9,0.5,2.4,1.4,1.4c1.2-1.3,2.6-2.5,4.1-3.5c0.5-0.3,0.7-1.1,0.2-1.6c-1.8-1.4-3.6-2.9-5.4-4.3
				C823.2,218.6,821.8,220,822.8,220.8L822.8,220.8z"/>
		</g>
	</g>
	<g>
		<g>
			<path class="st1" d="M804.5,211.7c-1.1,9.7-4.2,19.2,0.3,28.5c4.1,8.6,12.2,14.1,20.7,17.7c1.2,0.5,2.2-1.2,1-1.7
				c-8.4-3.6-16.4-8.9-20.3-17.6c-3.8-8.8-0.8-17.9,0.2-26.9C806.7,210.4,804.7,210.4,804.5,211.7L804.5,211.7z"/>
		</g>
	</g>
	<g>
		<g>
			<path class="st1" d="M819.1,258.5c2.3,0.1,4.5,0.3,6.8,0.4c0.6,0,0.9-0.5,1-1c0.3-2.3,0.6-4.6,0.8-6.9c0.2-1.3-1.8-1.3-2,0
				c-0.3,2.3-0.6,4.6-0.8,6.9c0.3-0.3,0.7-0.7,1-1c-2.3-0.1-4.5-0.3-6.8-0.4C817.9,256.5,817.9,258.5,819.1,258.5L819.1,258.5z"/>
		</g>
	</g>
	<g>
		<g>
			<path class="st1" d="M849.7,255.5c-0.7-1.4-0.3-2.5,1.1-3.4c0.8,0.6,1.4,1.3,1.9,2.1c0.2,0.5,0.4,0.9,0.6,1.4
				c0.3,0.8,0.4,1.5,0.5,2.3c-1.8-1.9,4.7-1.3,4.5-1.3c1.4,0.2,2.7,0.7,4,1.4c1.1,0.6,2.2-1.1,1-1.7c-2.9-1.5-8.9-3.5-11.2,0
				c-1.2,1.9,0.5,6.1,2.9,4.2c2.7-2.2-0.7-8.2-2.7-9.8c-3.9-3.1-5.4,2.1-4.6,5.2C848.1,257.3,850,256.7,849.7,255.5L849.7,255.5z"/>
		</g>
	</g>
	<g>
		<g>
			<path class="st1" d="M843.8,220.6c-1.3-2.7,0.4-9.7,4.5-6.8c2.2,1.5,2.8,5.7,0.5,7.5c0.3-0.1,0.6-0.2,1-0.3
				c-1.3-0.3,0.9-3.5,1.3-3.8c1-0.9,2.2-1.5,3.4-2.1c1.1-0.6,0.1-2.3-1-1.7c-2.8,1.4-7.6,4.8-5.3,8.7c0.8,1.3,2,1,2.8-0.1
				c1.1-1.4,1.5-3.3,1.4-5.1c-0.4-3.4-3.7-7-7.4-5.5c-3.7,1.5-4.3,7.1-2.8,10.2C842.7,222.7,844.4,221.7,843.8,220.6L843.8,220.6z"
				/>
		</g>
	</g>
	<g>
		<g>
			<path class="st1" d="M795.7,196.1c0.1,1.4-0.1,2.9,0,4.3c0,0.6,0.4,1,1,1c5.9,0.2,11.8-0.2,17.7,0c0.6,0,0.9-0.5,1-1
				c0.2-1.5,0-2.9,0-4.3c0-0.6-0.4-1-1-1c-5.9-0.3-11.8-0.1-17.7,0c-1.3,0-1.3,2,0,2c5.9-0.1,11.8-0.3,17.7,0c-0.3-0.3-0.7-0.7-1-1
				c0,1.5,0.2,2.9,0,4.3c0.3-0.3,0.7-0.7,1-1c-5.9-0.2-11.8,0.2-17.7,0c0.3,0.3,0.7,0.7,1,1c-0.1-1.4,0.1-2.9,0-4.3
				C797.7,194.9,795.7,194.9,795.7,196.1L795.7,196.1z"/>
		</g>
	</g>
	<g>
		<g>
			<path class="st1" d="M802,188.9c1.7-1.5,2,0.5,3,1.4c0.7,0.7,0.8,0.3,1.6,0.1c0.5-0.1,1.1-0.2,1.6-0.2c1.3-0.1,1.3-2.1,0-2
				c-1.7,0.1-4.2,0.4-5,2.2c-0.7,1.6,1.2,2.9,2.5,1.8c1.5-1.2,0.7-3.6-0.4-4.8c-1.4-1.7-3.3-1.3-4.8,0
				C799.6,188.3,801,189.7,802,188.9L802,188.9z"/>
		</g>
	</g>
	<g>
		<g>
			<path class="st1" d="M857.9,213.1c1.9-0.2,3.7-0.1,5.6,0.4c1.3,0.3,1.8-1.6,0.5-1.9c-2-0.5-4-0.6-6.1-0.4
				C856.7,211.3,856.7,213.3,857.9,213.1L857.9,213.1z"/>
		</g>
	</g>
	<g>
		<g>
			<path class="st1" d="M858.8,217.3c1.7,0,3.5,0,5.2,0c1.3,0,1.3-2,0-2c-1.7,0-3.5,0-5.2,0C857.5,215.3,857.5,217.3,858.8,217.3
				L858.8,217.3z"/>
		</g>
	</g>
	<g>
		<g>
			<path class="st1" d="M858.9,222.2c1.4,0,2.8-0.1,4.3-0.1c1.3,0,1.3-2,0-2c-1.4,0-2.8,0.1-4.3,0.1
				C857.6,220.3,857.6,222.3,858.9,222.2L858.9,222.2z"/>
		</g>
	</g>
</g>
<ellipse class="st2" cx="466.7" cy="619.9" rx="329.5" ry="0"/>
<g>
	<g>
		<rect x="120.7" y="208.2" class="st3" width="19.3" height="19.3"/>
		<rect x="120.7" y="235.5" class="st3" width="19.3" height="19.3"/>
	</g>
	<g>
		<rect x="84" y="208.2" class="st3" width="19.3" height="19.3"/>
		<rect x="84" y="235.5" class="st3" width="19.3" height="19.3"/>
		<rect x="84" y="262.9" class="st3" width="19.3" height="19.3"/>
	</g>
	<g>
		<rect x="47.2" y="208.2" class="st3" width="19.3" height="19.3"/>
		<rect x="47.2" y="235.5" class="st3" width="19.3" height="19.3"/>
		<rect x="157.5" y="261.5" class="st3" width="19.3" height="19.3"/>
	</g>
	<line class="st0" x1="75.6" y1="182.9" x2="75.6" y2="293.9"/>
	<line class="st0" x1="111.6" y1="182.9" x2="111.6" y2="293.9"/>
	<g>
		<rect x="157.5" y="208.2" class="st3" width="19.3" height="19.3"/>
		<rect x="157.5" y="235.5" class="st3" width="19.3" height="19.3"/>
	</g>
	<line class="st0" x1="148.6" y1="182.9" x2="148.6" y2="293.9"/>
	<ellipse class="st0" cx="113.6" cy="199.4" rx="72.3" ry="0"/>
</g>
<g>
	<g>
		<g>
			<g>
				<path class="st4" d="M163.4,605.7c-9.3-32.2-12.1-66.3-14.1-99.6c-1-17.6-2.2-35.4-1.3-53c1-20.3,6.4-40.3,15.3-58.5
					c0.5-1-1-1.8-1.4-0.8c-8.5,17.2-13.5,35.8-15.2,54.9c-1.6,18.1-0.2,36.7,0.9,54.9c1.9,34.2,4.8,69.4,14.3,102.5
					C162.2,607.1,163.7,606.7,163.4,605.7L163.4,605.7z"/>
			</g>
		</g>
		<g>
			<path class="st4" d="M157,424c0.9,5.6,1.8,11.2,2.7,16.8c0.8,5.2,1.9,10.9,6,14.2c1.9,1.4,4.8,2.3,6.6,0.7
				c0.8-0.6,1.3-1.7,1.5-2.7c0.9-3.6-0.7-7.3-2.5-10.6c-2-3.9-4.3-7.7-6.7-11.4c-0.8-1.2-1.7-2.5-2.7-3.5c-2.8-2.7-7.2-4.2-8.4-8"/>
			<g>
				<path class="st4" d="M156.2,424.2c1.4,8.4,1.8,17.7,4.9,25.7c1.7,4.4,6.7,9.5,11.6,6.5c6.1-3.6-0.6-14.5-2.7-18.3
					c-2-3.5-4.1-7.2-6.7-10.4c-2.6-3.3-7.3-4.3-8.9-8.5c-0.4-1-1.9-0.6-1.5,0.4c1.6,4,5.5,5.6,8.6,8.3c2.4,2.2,4,5.6,5.7,8.3
					c1.9,3.2,3.9,6.5,5.2,10.1c0.8,2.1,1,4.2,0.7,6.4c-1,6.2-6.8,1.7-8.4,0.1c-2.2-2.3-3-5.9-3.7-8.9c-1.4-6.6-2.2-13.5-3.3-20.2
					C157.5,422.8,156,423.2,156.2,424.2L156.2,424.2z"/>
			</g>
		</g>
		<g>
			<path class="st4" d="M155.2,415.9c7.2,1.9,14.2,5.2,20.1,9.7c3.2,2.4,6.5,5.2,10.5,5.2c3.1,0,6.1-2,7.3-4.9
				c0.5-1.1,0.6-2.4,0.3-3.5c-0.9-3.3-4.9-4.4-8.4-4.8c-9.4-1.1-18.8-1.6-28.3-1.5"/>
			<g>
				<path class="st4" d="M155,416.7c9.2,2.5,16.2,7.2,23.9,12.5c5.2,3.6,11.9,3.1,15-2.9c2.8-5.6-3.1-8.6-7.4-9.4
					c-9.6-1.8-19.8-1.8-29.6-1.7c-1,0-1,1.6,0,1.6c6.8-0.1,13.6,0.2,20.5,0.7c3.2,0.2,6.5,0.6,9.7,1.1c1.4,0.2,2.5,0.7,3.7,1.4
					c5.2,2.8,0.2,8.4-2.8,9.7c-5.6,2.3-12.5-5.2-16.8-7.9c-4.8-3-10.2-5.2-15.7-6.6C154.4,414.9,154,416.5,155,416.7L155,416.7z"/>
			</g>
		</g>
		<g>
			<path class="st4" d="M158.6,406.6c4.9,0,12.6,0.6,17.5,0.6c1.2,0,2.5,0,3.6-0.3c1.8-0.5,3.2-1.8,4.5-3.1c2-2.1,3.7-4.5,5-7.2
				c0.3-0.6,0.6-1.3,0.6-2c-0.2-1.8-2.3-2.7-4.1-2.5C174.9,392.8,169.4,405.5,158.6,406.6"/>
			<g>
				<path class="st4" d="M158.6,407.4c3.9,0,7.9,0.2,11.8,0.4c3.5,0.2,7.2,0.6,10.6-0.6c2.7-1,4.7-3.8,6.4-6c1.1-1.4,4.5-5.8,2.9-8
					c-3.4-4.5-10.2-1-13.9,1.4c-6,4-10.5,10-18,11c-1,0.2-0.6,1.7,0.4,1.5c9.9-1.4,15-11.2,24.2-14.1c1.4-0.4,2.8-0.6,4.3-0.3
					c3.7,0.7,0.2,5.2-0.6,6.4c-2.5,4-5.6,6.9-10.6,6.9c-5.8,0.1-11.7-0.6-17.5-0.6C157.5,405.8,157.5,407.4,158.6,407.4L158.6,407.4
					z"/>
			</g>
		</g>
		<g>
			<path class="st4" d="M162.9,394.2c-2-6.8,0-14,2.2-20.7c0.8-2.5,2.3-5.5,4.9-5.3c1.9,0.1,3.3,2,3.9,3.9c1.4,3.9,0.8,8.3-1.1,12
				C171.1,387.6,166.5,392,162.9,394.2"/>
			<g>
				<path class="st4" d="M163.7,393.9c-1.1-4.6-0.8-8.9,0.2-13.5c0.5-2,3.1-14.9,8.1-10.6c3.8,3.4,1.8,11-0.2,14.6
					c-2,3.6-5.8,6.8-9.3,8.9c-0.9,0.6-0.1,1.9,0.8,1.4c4.3-2.7,9.2-6.9,11-11.9c1.4-3.9,2.7-12.4-2.1-14.9c-4.2-2.3-6.6,1.7-7.9,5.2
					c-2.4,6.8-4,14-2.2,21.1C162.4,395.4,164,394.9,163.7,393.9L163.7,393.9z"/>
			</g>
		</g>
		<g>
			<path class="st4" d="M156.3,409c-2.3-0.6-6.4-3.6-7.6-5.6c-1.2-2-2.1-4.3-3.3-6.3c-1.6-2.6-3.9-4.7-5.2-7.4
				c-1.4-2.7-1.3-6.5,1.1-8.3c2.7-1.9,6.8-0.1,8.5,2.9c1.6,3,1.4,6.6,1.1,9.9c-0.2,3.4,1.5,10.6,3.2,13.6"/>
			<g>
				<path class="st4" d="M156.6,408.2c-5.8-1.8-7.7-6.8-10.4-11.5c-1.3-2.3-3.2-4.1-4.6-6.3c-2.6-3.9-1-11.1,5-8.3
					c5.6,2.7,3.1,11,3.8,15.8c0.5,3.5,1.4,7.2,3.1,10.3c0.5,0.9,1.9,0.1,1.4-0.8c-1.7-3.2-2.5-7-3-10.6c-0.5-3.5,0.3-6.9-0.3-10.5
					c-0.8-4-6.7-9.3-10.6-5.6c-4.6,4.1-1.3,9.8,1.8,13.7c4.4,5.6,6,12.9,13.6,15.3C157.1,410.1,157.5,408.5,156.6,408.2L156.6,408.2
					z"/>
			</g>
		</g>
		<g>
			<path class="st4" d="M154,415.8c-3.9-0.2-10-3.1-13-5.7c-3.8-3.4-5.7-8.9-11.1-10c-4.3-0.9-11.4-1-12.6,4.1
				c-0.6,2.6-0.8,5.3,0,7.7c0.9,2.5,3,4.7,5.6,4.9c1.6,0.2,3.2-0.4,4.8-0.7c6.9-1.3,14.8,1.9,20.9-1.8"/>
			<g>
				<path class="st4" d="M154,415c-4.8-0.4-9.7-2.9-13.1-6.2c-2.7-2.7-4.4-6-7.7-8.2c-3.6-2.5-12.5-2.9-15.5,1
					c-3.9,5.2-1.8,14.7,5,16.1c1.7,0.3,3.6-0.3,5.2-0.7c2.8-0.6,5.8-0.3,8.6-0.1c4.3,0.2,8.5,0.3,12.4-1.8c0.9-0.5,0.1-1.9-0.8-1.4
					c-6.4,3.3-13.9,0.6-20.7,1.7c-2.9,0.4-5.5,1-7.9-1.1c-2.3-2.1-2.3-5.8-1.9-8.5c0.6-4.3,4-5.2,7.8-5.2c7.2-0.1,9.7,4.8,14.1,9.5
					c3.5,3.7,9.3,6.2,14.3,6.7C155,416.7,155,415.1,154,415L154,415z"/>
			</g>
		</g>
		<g>
			<path class="st4" d="M153.6,419.4c-4.6,2.1-15.9,6-20.9,6c-3.6,0-7.9-0.3-10.1,2.5c-1.4,1.8-1.3,4.2-1.2,6.4
				c0,0.6,0.1,1.1,0.2,1.6c0.5,1.1,1.7,1.7,2.8,1.9c3.6,0.8,7.3-0.5,10.6-2.2C140.8,432.7,150.1,424.8,153.6,419.4"/>
			<g>
				<path class="st4" d="M153.2,418.8c-6.5,2.9-14.3,6-21.6,5.8c-2.7-0.1-6.8-0.2-8.9,2c-2,2.3-2.8,5.8-2.1,8.8
					c1.8,7,12.6,2.3,16.4,0.2c6.5-3.9,13-9.4,17.2-15.6c0.6-0.9-0.8-1.7-1.4-0.8c-3.4,5.1-8.3,9.2-13.2,12.7c-2.7,2-5.6,3.6-8.7,4.8
					c-2.3,0.8-8.5,1.9-8.9-2.3c-0.2-2.7-0.1-5.3,2.3-7.1c2.3-1.7,6.1-1,8.9-1c2.2-0.1,4.4-0.6,6.5-1.1c4.8-1.2,9.6-2.9,14.1-4.9
					C155,419.8,154.2,418.4,153.2,418.8L153.2,418.8z"/>
			</g>
		</g>
		<g>
			<path class="st4" d="M181.5,471.6c-0.1-1.4,0-5.2-0.3-6.6c-0.5-1.9-1-3.9-1.5-5.7c-0.2-0.7-0.4-1.4-0.3-2.3
				c0.1-0.7,0.3-1.5,1-1.9c0.8-0.5,1.9-0.3,2.6,0.3c0.7,0.6,1,1.5,1,2.5c0.1,1.3-0.4,2.5-0.7,3.7c-0.6,2.1-1.8,4.2-1.9,6.4"/>
			<g>
				<path class="st4" d="M182.3,471.6c-0.2-3.6-0.3-6.7-1.3-10.2c-0.1-0.4-0.2-0.8-0.3-1.1c-0.8-1.6,0-2.6,2.3-3.1
					c0.5,1.1-0.2,3.1-0.6,4.2c-0.6,2.3-1.6,4.2-1.9,6.5c-0.1,1,1.5,1,1.6,0c0.3-3.4,3.1-6.8,2.5-10.2c-0.4-2.5-2.1-4.2-4.7-3.3
					c-2.5,0.8-1.4,4.7-0.9,6.4c1,3.8,1.4,7.1,1.5,11C180.7,472.6,182.3,472.6,182.3,471.6L182.3,471.6z"/>
			</g>
		</g>
		<g>
			<path class="st4" d="M187,466.6c2.2-1.6,4.7-5.4,6.3-7.5s3.9-4.1,6.6-3.9c0.2,0,0.2,0,0.4,0.1c0.5,0.2,0.4,1,0.1,1.5
				c-2,3.8-6,6-9.8,8.1c-1,0.5-1.9,1-2.8,1.5"/>
			<g>
				<path class="st4" d="M187.6,467.1c3.8-3,5.5-8.1,9.7-10.6c1-0.8,1.6-0.6,2,0.5c-0.4,0.6-0.8,1.2-1.3,1.7c-1,1.1-2.3,2.1-3.5,2.9
					c-2.3,1.5-4.7,2.7-7.1,3.9c-0.9,0.5-0.1,1.9,0.8,1.4c3.4-1.8,6.8-3.5,9.8-6c1.5-1.3,4.6-4.3,2.9-6.4c-1.6-1.9-6,1.6-7,2.7
					c-2.7,2.7-4.3,6.4-7.3,8.8C185.7,466.7,186.8,467.8,187.6,467.1L187.6,467.1z"/>
			</g>
		</g>
		<g>
			<path class="st4" d="M182.8,471c4.3-0.9,8.1-3.6,12.4-4.2c0.7-0.1,1.4-0.1,2,0.1c0.6,0.2,1.3,0.7,1.4,1.4c0.3,1-0.4,2.1-1.3,2.6
				c-0.9,0.5-2,0.5-3.1,0.5c-4.3,0.1-8.1,0.2-12.4,0.2"/>
			<g>
				<path class="st4" d="M182.9,471.8c3.9-1,7.4-3.1,11.4-4c0.6,0.9,1.2,1.8,1.9,2.7c-1,0.2-2.1,0.2-3.1,0.2c-1.2,0-2.5,0-3.7,0.1
					c-2.5,0-4.9,0.1-7.4,0.1c-1,0-1,1.6,0,1.6c4.5-0.1,9-0.1,13.5-0.2c2.3-0.1,4.3-1.4,4.1-3.9c-0.4-6.1-14.8,1.4-16.9,1.9
					C181.5,470.4,182,472,182.9,471.8L182.9,471.8z"/>
			</g>
		</g>
		<g>
			<path class="st4" d="M179.5,476.4c1,1.1,1.6,2.7,2.4,4c1,1.6,2.7,2.8,4.2,3.9c1,0.8,2.4,1.7,3.7,1.2c0.6-0.2,1-0.6,1.3-1
				c0.6-0.7,0.9-1.6,1-2.6c0-0.2,0-0.5-0.1-0.7c-0.2-0.3-0.4-0.6-0.7-0.7c-1.2-0.7-2.6-1.3-3.9-1.5c-1.2-0.2-2.5-0.2-3.7-0.6
				c-1.9-0.5-3.4-1.6-4.9-2.7"/>
			<g>
				<path class="st4" d="M178.9,477c1.2,1.4,1.7,3.3,2.9,4.7c1.1,1.3,2.5,2.3,3.9,3.4c2.4,1.8,4.8,1.9,6.5-0.6
					c1.7-2.6,0.3-4.2-2-5.3c-1.7-0.8-3.5-1-5.4-1.2c-2.2-0.3-3.9-1.6-5.6-2.9c-0.8-0.6-1.6,0.8-0.8,1.4c1.6,1.2,3.2,2.2,5.2,2.8
					c2.6,0.8,5,0.6,7.5,2c0.5,0.8,0.4,1.6-0.1,2.3c-1.2,1.4-2.4,1.6-3.6,0.6c-1.1-0.6-2.1-1.6-3.1-2.4c-1.9-1.6-2.5-4-4-5.9
					C179.4,475,178.2,476.2,178.9,477L178.9,477z"/>
			</g>
		</g>
		<g>
			<path class="st4" d="M175.6,480.8c-1.2,2.5-1.8,5.3-1.8,8.1c0,0.5,0.1,1,0.3,1.4c0.4,0.6,1.1,0.8,1.8,0.8c1.4,0.1,2.9-0.6,3.2-2
				c0.2-0.8,0-1.6-0.2-2.3c-0.3-1.1-0.6-2.2-1.2-3.2c-0.4-0.7-1-1.4-1.4-2.1c-0.4-0.7-0.7-1.5-0.6-2.3"/>
			<g>
				<path class="st4" d="M174.9,480.4c-1.4,3.1-4.3,11.8,1.7,11.6c1.4,0,3.3-1.2,3.5-2.7c0.2-1.4-0.3-2.8-0.8-4.2
					c-0.6-2-2.6-3.5-2.6-5.8c0-1-1.6-1-1.6,0s0.2,1.8,0.7,2.7c0.9,1.8,1.9,3.1,2.5,5.1c0.6,1.2,0.1,2.3-1.2,3.2
					c-2.7,1-2.3-2.1-2.3-3.1c0.1-2.1,0.7-4.1,1.6-6C176.7,480.3,175.3,479.5,174.9,480.4L174.9,480.4z"/>
			</g>
		</g>
		<g>
			<path class="st4" d="M178.6,473.3c-1.4-3.5-3-6.8-4.8-10c-0.5-0.9-1-1.9-1.9-2.5c-0.9-0.6-2.1-0.9-3-0.2c-0.6,0.4-0.9,1.1-1,1.8
				c-0.3,1.8,0.3,3.6,1.7,4.8c0.9,0.7,1.9,1.1,3,1.6c2.3,1.1,4.1,2.9,5.4,5"/>
			<g>
				<path class="st4" d="M179.5,473c-1-2.3-6.4-17.6-11-13.1c-2,1.9-1.6,4.9-0.1,7c0.9,1.2,2.5,1.9,3.8,2.5c2.2,1,3.9,2.7,5.2,4.7
					c0.6,0.9,1.9,0.1,1.4-0.8c-1-1.4-2.1-2.7-3.5-3.9c-1.9-1.5-4.5-2-6-3.9c-0.2-0.4-0.3-0.8-0.5-1.2c-0.6-1.9,0.4-2.7,3.1-2.5
					c1,0.9,1.5,2.5,2.2,3.6c1.4,2.6,2.6,5.3,3.8,8.1C178.2,474.4,179.9,474,179.5,473L179.5,473z"/>
			</g>
		</g>
		<g>
			<path class="st4" d="M174.6,477.4c-2.3,0.2-4.7-0.6-6.9-1.4s-4.8-1.3-6.9-0.4c-0.5,0.2-1,0.5-1.3,0.9c-0.2,0.3-0.3,0.6-0.4,1
				c-0.3,1.3-0.5,2.9,0.6,3.8c1.4,1.1,3.6,0.2,5.2-0.2c2.1-0.5,4.3-1,6.3-1.7c1-0.3,1.9-0.6,2.7-1.2c0.4-0.2,0.7-0.6,1.2-0.7"/>
			<g>
				<path class="st4" d="M174.6,476.6c-4.7,0.2-17.4-6.4-16.5,3.4c0.2,2.7,3.2,2.7,5.2,2.3c4.3-0.9,8.2-2.3,12.2-4.1
					c1-0.4,0.2-1.9-0.8-1.4c-1.4,0.6-14.7,6.7-15,2.3c-0.4-4.3,5.6-3.1,7.9-2.3c2.4,0.7,4.6,1.4,7.1,1.4
					C175.6,478.2,175.6,476.6,174.6,476.6L174.6,476.6z"/>
			</g>
		</g>
		<g>
			<g>
				<path class="st4" d="M186.7,465.8c-7.2,7-13.9,14.6-20.4,22.2c-5.3,6.2-8.9,14-8.3,22.3c0.5-0.2,0.9-0.4,1.4-0.6l0,0
					c-0.4-0.3-1-0.3-1.3,0.2c-0.6,1.2-0.2,3.3-0.2,4.6c-0.1,5-0.1,10.1,0,15.1c0.2,25.1,0.9,50,1.8,75.1c0,1,1.6,1,1.6,0
					c-0.8-24.3-1.5-48.7-1.8-73.1c-0.1-5.3-0.1-10.6,0-15.9c0-1.3,0-2.6,0.1-3.9c0-0.4,0.2-1.7,0-1c-0.4,0.1-0.8,0.1-1.3,0.2l0,0
					c0.5,0.4,1.4,0.2,1.4-0.6c-0.6-9.2,3.9-16.7,9.7-23.4c6-6.8,11.9-13.7,18.4-20.1C188.6,466.2,187.4,465,186.7,465.8L186.7,465.8
					z"/>
			</g>
		</g>
		<g>
			<path class="st4" d="M117.5,496.9c-3.7-4.7-9.1-6.8-13.4-11c-0.5-0.5-1-1-1.2-1.8c-0.2-0.7,0-1.5,0.6-1.9c1-0.6,2.2,0.3,2.9,1.1
				C110.3,487.6,114.5,492,117.5,496.9"/>
			<g>
				<path class="st4" d="M118.1,496.4c-3.5-4.3-8.5-6.8-12.6-10.4c-0.6-0.5-1-1-1.4-1.6c1.2-0.9,2-0.7,2.7,0.3
					c1.1,1.3,2.3,2.5,3.5,3.8c2.5,2.7,4.8,5.7,6.8,8.9c0.6,0.9,1.9,0.1,1.4-0.8c-2.4-3.9-5.3-7.3-8.4-10.7c-1.6-1.8-4.7-6.4-7.3-3.6
					c-2.2,2.3,2.6,5.6,3.9,6.7c3.6,2.8,7.6,5.1,10.6,8.6C117.6,498.3,118.7,497.2,118.1,496.4L118.1,496.4z"/>
			</g>
		</g>
		<g>
			<path class="st4" d="M123.8,500.9c-0.5-3.8-1.4-9.2-1.9-13c-0.2-1.3-0.2-2.8,0.8-3.5c1.3-0.9,3.1,0.4,3.4,1.9
				c0.3,1.5-0.4,3-1,4.4C123.9,494,122.9,497.5,123.8,500.9"/>
			<g>
				<path class="st4" d="M124.6,500.9c-0.6-4.6-1.5-9.2-1.9-13.8c0.9,0.4,1.7,0.8,2.6,1.2c-0.2,0.7-0.5,1.4-0.8,2.2
					c-0.6,1.4-1,2.9-1.4,4.4c-0.5,2-0.3,4.1,0.1,6.1c0.2,1,1.8,0.6,1.5-0.4c-0.6-3-0.1-5.8,0.9-8.6c0.6-2,1.5-3.6,1.4-5.7
					c-0.1-1.4-2.1-3.5-3.7-3c-2.4,1-2.3,3.1-2,5.5c0.6,4,1.2,8.1,1.8,12.1C123.1,501.9,124.8,501.9,124.6,500.9L124.6,500.9z"/>
			</g>
		</g>
		<g>
			<path class="st4" d="M123.4,502c-3.2-1-9.5-1.8-12.7-2.7c-1.3-0.4-2.6-0.8-3.9-0.8s-2.7,0.4-3.6,1.4c-0.9,1-1.1,2.7-0.3,3.7
				c1,1.2,2.7,1.2,4.3,1.1c2.3-0.2,4.4-0.3,6.7-0.5c1.3-0.1,2.6-0.2,3.8-0.6C118.6,503.3,122.3,501.9,123.4,502"/>
			<g>
				<path class="st4" d="M123.6,501.3c-5-1.4-10.2-2.3-15.3-3.4c-2.4-0.6-7,0.5-6.8,3.9c0.2,3.9,3.8,3.9,6.9,3.7
					c2.7-0.2,5.6-0.1,8.1-0.7c2.3-0.6,4.5-1.7,6.8-1.9c1-0.1,1-1.7,0-1.6c-1.9,0.1-3.7,0.9-5.5,1.4c-3.3,1.1-7.3,1-10.8,1.2
					c-2.3,0.4-2.3-1.1-0.3-4.5c1.3,0.1,2.5,0.3,3.7,0.8c1.3,0.4,2.7,0.6,4,0.9c2.9,0.6,5.9,1,8.7,1.9
					C124.2,503.1,124.6,501.5,123.6,501.3L123.6,501.3z"/>
			</g>
		</g>
		<g>
			<path class="st4" d="M125.7,503.9c-2.6,0.9-6.8,2.9-9,4.6c-2.2,1.7-3.9,4.2-4.1,6.9c-0.2,1.5,0.4,3.4,1.9,3.9
				c1,0.3,2.3-0.1,3-0.9c0.8-0.8,1.3-1.8,1.7-2.8c0.9-2,1.9-4,2.7-6C122.5,508.1,124.6,504.8,125.7,503.9"/>
			<g>
				<path class="st4" d="M125.6,503.1c-5.6,2.1-17.4,7.8-13,15.7c1.7,3.1,5.3,0.6,6.5-1.3c2.7-4.2,3.5-9.6,7.3-13.1
					c0.8-0.7-0.4-1.9-1.1-1.1c-3.9,3.5-5.2,9-7.6,13.5c-0.8,1.9-2.3,1.9-4.3,0.1c-0.2-1-0.1-2,0.2-2.9c0.6-2.1,2.3-3.9,3.9-5.1
					c2.4-1.8,5.5-3.1,8.3-4.1C126.9,504.4,126.5,502.8,125.6,503.1L125.6,503.1z"/>
			</g>
		</g>
		<g>
			<path class="st4" d="M128.5,506.4c-1.9,3.5-2.9,9.3-2.7,13.3c0.1,1.1,0.2,2.4,1.3,2.7c1.2,0.3,2.2-1,2.5-2.3
				c1.1-4.2,0-8.6-1-12.8"/>
			<g>
				<path class="st4" d="M127.8,506c-1.5,2.9-2.2,6-2.7,9.3c-0.3,2.5-1,6.4,1.5,7.9c1.8,1.1,3.2-1.5,3.7-2.7c1.4-4.1-0.1-9.2-1-13.2
					c-0.2-1-1.8-0.6-1.5,0.4c0.6,2.3,1.1,4.4,1.4,6.8c0.2,1.1,0.1,2.3,0.1,3.5c-0.2,0.7-0.2,1.4-0.4,2.1c-1.8,0.6-2.5,0.2-2.3-1
					c-0.1-4,0.7-8.5,2.7-12.1C129.8,505.8,128.3,505,127.8,506L127.8,506z"/>
			</g>
		</g>
		<g>
			<path class="st4" d="M126,503.8c1-1.3,5.1-6.7,6.1-7.9c1.4-1.8,3-3.5,5-4.7c1.4-0.8,3.5-1,4.5,0.2c0.7,0.9,0.6,2.2,0.2,3.2
				c-1.2,2.9-4.5,4.2-7.4,5.2C132.2,500.5,127.8,501.4,126,503.8"/>
			<g>
				<path class="st4" d="M126.5,504.4c3.4-4.2,6.3-9.6,10.9-12.5c2.3-1.4,3.5-0.4,3.3,3.1c-0.6,1.1-1.8,1.9-2.7,2.5
					c-1.5,0.9-3.4,1.4-5.1,1.9c-2.7,0.8-5.6,1.6-7.5,3.8C124.7,503.9,125.8,505.1,126.5,504.4c3.2-3.5,9-3.5,13-6
					c2.7-1.6,4.9-5.6,2-8.1c-5.3-4.5-13.7,9.8-16.2,12.9C124.8,504,125.9,505.2,126.5,504.4L126.5,504.4z"/>
			</g>
		</g>
		<g>
			<path class="st4" d="M130.9,505.9c3.2,1.9,8.9,4,12.6,4.1c0.4,0,0.9,0,1.3-0.2c1-0.3,1.4-1.4,1.9-2.3c-2.7-1.9-6-2.8-9.3-2.4
				c-2.1,0.2-6.6,1-8.8,1"/>
			<g>
				<path class="st4" d="M130.4,506.6c4.3,2.3,13.9,7.5,16.8,1.3c0.2-0.4,0.1-0.8-0.3-1.1c-2.7-1.8-5.4-2.6-8.6-2.7
					c-3.3-0.1-6.5,1.1-9.8,1c-1,0-1,1.6,0,1.6c6.4,0.2,11.8-2.5,17.6,1.4c-0.1-0.4-0.2-0.7-0.3-1.1c-2.3,4.8-11.4-0.2-14.6-1.9
					C130.3,504.8,129.5,506.1,130.4,506.6L130.4,506.6z"/>
			</g>
		</g>
		<g>
			<g>
				<path class="st4" d="M116.9,497.5c5.7,4.8,11.8,9.3,17.1,14.5c5.7,5.7,8.9,13.6,9.5,21.6c0.4,5.3,0,10.8,0.2,16.1
					c0.4,8.9,1,17.7,2.3,26.5c1,7.6,2.1,15.9,5.8,22.8c0.5,0.9,1.9,0.1,1.4-0.8c-3.9-7.4-4.9-16.8-6-25c-1.1-8.9-1.7-17.9-2-26.9
					c-0.2-6,0.3-12.2-0.8-18c-2.8-14.7-15.5-23-26.3-31.9C117.3,495.7,116.1,496.9,116.9,497.5L116.9,497.5z"/>
			</g>
		</g>
	</g>
	<path class="st4" d="M198.5,562.8c0,32.2-5.8,59-39.6,59c-33.8,0-39.6-26.8-39.6-59H198.5z"/>
</g>
<g>
	<defs>
		<path id="SVGID_1_" d="M738.2,618.3H190c-2,0-3.7-1.6-3.7-3.7V120.9c0-2,1.6-3.7,3.7-3.7h548.2c2,0,3.7,1.6,3.7,3.7v493.8
			C741.9,616.7,740.2,618.3,738.2,618.3z"/>
	</defs>
	<use xlink:href="#SVGID_1_"  style="overflow:visible;fill:#8AA3B9;"/>
	<clipPath id="SVGID_2_">
		<use xlink:href="#SVGID_1_"  style="overflow:visible;"/>
	</clipPath>
	<g class="st5">
		<g>
			<g>
				<circle class="st6" cx="195.9" cy="125.7" r="3"/>
				<circle class="st6" cx="205.3" cy="125.7" r="3"/>
				<circle class="st6" cx="214.6" cy="125.7" r="3"/>
				<rect x="186.4" y="133.4" class="st6" width="555.5" height="486.5"/>
			</g>
			<g>
				<defs>
					<rect id="SVGID_3_" x="186.4" y="133.4" width="555.5" height="188.9"/>
				</defs>
				<use xlink:href="#SVGID_3_"  style="overflow:visible;fill:#00D0AD;"/>
				<clipPath id="SVGID_4_">
					<use xlink:href="#SVGID_3_"  style="overflow:visible;"/>
				</clipPath>
				<g class="st7">
					<g>
						<g>
							<g>
								<path class="st1" d="M371,265.6c-13.8,15.7-35.1,13.4-50.1,0.7c-11.4-9.6-17.8-24.1-20-38.8c-2.2-14.7-0.5-29.7,2.1-44.4
									c1.7-9.7,3.8-19.5,8.7-28.1c4.8-8.6,12.7-15.9,22.4-17.9c10.4-2.1,27.7-2.7,40.1,20.9L351,181.9h30.6
									c3.8,14,5.2,29.2,3.9,43.9C384.4,240.1,380.5,254.8,371,265.6z"/>
								<g>
									<path class="st1" d="M370.2,264.7c-16,17.6-41.3,10.9-55-6.1c-16.1-20-15.5-47.4-11.6-71.4c3.4-20.8,10.2-47,35.1-49.7
										c6.8-0.7,13.6,0.4,19.5,3.9c4.2,2.5,7.7,6,10.6,10c0.6,0.9,1.2,1.7,1.8,2.6c0,0,2.7,4.1,2.8,3c0,0.3-0.7,0.6-0.9,0.9
										c-1.1,1.9-3.6,3.7-5.1,5.3c-2.4,2.5-4.9,5-7.3,7.5c-3.3,3.4-6.6,6.8-9.9,10.2c-0.7,0.8-0.2,2.1,0.9,2.1
										c5.1,0,10.2,0,15.3,0c3.5,0,7,0,10.5,0c1,0,2.4-0.2,3.4,0c2.2,0.5,0.1-0.7,0.7,0.9c2.6,6.3,3,14.8,3.5,21.5
										c0.5,7.3,0.5,14.6-0.2,21.8C382.9,240.9,379,254.3,370.2,264.7c-1,1.2,0.7,3,1.7,1.7c19.1-22.6,18-57.8,10.9-84.8
										c-0.1-0.5-0.7-0.9-1.2-0.9c-10.2,0-20.4,0-30.6,0c0.3,0.7,0.6,1.4,0.9,2.1c7.7-8,15.5-16,23.2-24c0.4-0.4,0.5-1,0.2-1.5
										c-6.9-12.6-17.6-22.6-32.7-22.5c-15.4,0.1-27.5,9.6-33.9,23.4c-4.4,9.5-6.2,20-7.8,30.3c-1.8,11.6-2.9,23.4-1.6,35.1
										c1.9,17.9,9.4,35.8,24.6,46.4c15.2,10.6,35.2,10.5,48.1-3.6C373,265.3,371.2,263.6,370.2,264.7z"/>
								</g>
							</g>
							<g>
								<g>
									<path class="st8" d="M341.2,146.8c2.3,39.7,3,79.5,3.9,119.3c0.1,3.8,0.2,7.7,0.2,11.5c0,1.6,2.5,1.6,2.5,0
										c-0.6-32.6-1.5-65.2-2.7-97.8c-0.4-11-0.9-22-1.5-33C343.6,145.2,341.1,145.2,341.2,146.8L341.2,146.8z"/>
								</g>
							</g>
							<g>
								<path class="st1" d="M406.5,332.8c-20.9-0.2-33-17.9-33.1-37.5c-0.1-14.9,6.7-29.2,16.5-40.4c9.8-11.2,22.3-19.7,35.1-27.3
									c8.5-5,17.3-9.8,27-11.7c9.7-1.9,20.4-0.7,28.2,5.3c8.4,6.5,20,19.3,10.2,44l-13.4,21.3c-8.3,12.2-18.8,22.9-30.7,31.5
									C434.5,326.4,420.8,333,406.5,332.8z"/>
								<g>
									<path class="st1" d="M406.5,331.6c-26.8-0.8-36.5-29.7-29.4-52.2c8.5-26.8,35.1-44.9,59.1-56.7c12.4-6.1,28.1-9.9,40.7-2.2
										c7.2,4.4,13.1,11.7,15.1,19.9c4.1,17.1-6.7,30.6-15.2,44C462,307.4,435.1,331.4,406.5,331.6c-1.6,0-1.6,2.5,0,2.5
										c29.1-0.2,56.2-23.9,71.5-47c9.2-13.9,20.2-28.4,16.6-46.2c-1.7-8.4-7-15.6-13.8-20.7c-11.1-8.4-26-7.6-38.4-2.9
										c-14,5.3-27.4,14-39.1,23.2c-11.6,9.1-21.8,20.5-27.2,34.4c-9.7,24.6,0,58.3,30.4,59.2C408,334.1,408,331.6,406.5,331.6z"
										/>
								</g>
							</g>
							<g>
								<g>
									<path class="st8" d="M477.2,232.9c-28.7,27.6-58.4,54.1-88,80.6c-2.9,2.6-5.7,5.1-8.6,7.7c-1.2,1.1,0.6,2.8,1.7,1.7
										c24.3-21.7,48.6-43.5,72.5-65.7c8.1-7.5,16.2-15,24.1-22.6C480.1,233.6,478.4,231.8,477.2,232.9L477.2,232.9z"/>
								</g>
							</g>
							<g>
								<g>
									<path class="st8" d="M300.5,202.9c14.9,0.8,29.9,1.6,44.8,2.3c1.6,0.1,1.6-2.4,0-2.5c-14.9-0.8-29.9-1.6-44.8-2.3
										C298.9,200.4,298.9,202.8,300.5,202.9L300.5,202.9z"/>
								</g>
							</g>
							<g>
								<g>
									<path class="st8" d="M301,228.8c15-1.4,29.4-6.6,44.4-8c1.6-0.1,1.6-2.6,0-2.5c-15,1.4-29.4,6.6-44.4,8
										C299.4,226.4,299.4,228.9,301,228.8L301,228.8z"/>
								</g>
							</g>
							<g>
								<g>
									<path class="st1" d="M349.4,443.9c-0.5-48.6-0.9-97.2-1.4-145.7c-0.1-6.9-0.1-13.7-0.2-20.6c0-1.6-2.5-1.6-2.5,0
										c0.5,48.6,0.9,97.2,1.4,145.7c0.1,6.9,0.1,13.7,0.2,20.6C347,445.5,349.4,445.5,349.4,443.9L349.4,443.9z"/>
								</g>
							</g>
							<g>
								<g>
									<path class="st1" d="M309.9,274.1c-3.2,7.1-9.3,13.2-17,17c-11.5,5.8-25.2,5.9-37.6,2.6s-23.7-9.7-34.5-16.7
										c-7.1-4.7-14.2-9.7-19.4-16.4c-5.2-6.8-8.1-24.7-6.4-33.1L309.9,274.1z"/>
									<g>
										<path class="st1" d="M308.9,273.5c-6.3,13.2-20.1,20.4-34.3,21.1c-14.6,0.8-28.5-4.4-41-11.3c-11-6.1-25.3-13.8-31.9-24.9
											c-5-8.3-6.9-21.1-5.2-30.6c-0.5,0.3-1,0.6-1.5,0.9c33.5,13.6,67,27.2,100.5,40.8c4.8,1.9,9.5,3.9,14.3,5.8
											c1.5,0.6,2.1-1.8,0.7-2.4c-33.5-13.6-67-27.2-100.5-40.8c-4.8-1.9-9.5-3.9-14.3-5.8c-0.6-0.2-1.4,0.3-1.5,0.9
											c-1.8,9.9,0.2,22.7,5,31.6c3.2,5.9,9,10.6,14.3,14.5c6.5,4.8,13.4,9.1,20.6,13c13.7,7.4,29.2,12.5,44.9,10.4
											c13.6-1.8,26.3-9.3,32.3-22C311.7,273.3,309.6,272.1,308.9,273.5z"/>
									</g>
								</g>
								<line class="st9" x1="212.3" y1="271.1" x2="231.5" y2="242.3"/>
								<line class="st9" x1="257.3" y1="294.3" x2="265.3" y2="256"/>
								<line class="st9" x1="268.1" y1="295.9" x2="270.8" y2="258.2"/>
							</g>
							<g>
								<g>
									<path class="st1" d="M345.5,441.8c-0.7-20.7-3.6-41.5-5.6-62.1c-2.3-23.9-4.2-47.9-7.3-71.7c-0.5-4.2-2-8.1-3.7-12.1
										c-3.8-8.6-9.5-18.8-18.4-23c-1.4-0.7-2.7,1.4-1.2,2.1c8.5,4,13.8,13.8,17.5,22.1c1.6,3.6,2.9,7.2,3.4,11.2
										c1.2,9.1,2,18.3,3,27.4c2.8,27.4,5.4,54.7,7.9,82.1c0.7,7.9,1.7,15.9,2,23.8C343.1,443.4,345.6,443.4,345.5,441.8
										L345.5,441.8z"/>
								</g>
							</g>
							<g>
								<g>
									<path class="st8" d="M424.9,277.3c-6-11.9-12-23.7-18-35.6c-0.7-1.4-2.8-0.2-2.1,1.2c6,11.9,12,23.7,18,35.6
										C423.4,279.9,425.6,278.7,424.9,277.3L424.9,277.3z"/>
								</g>
							</g>
							<g>
								<g>
									<path class="st8" d="M445.1,269.3c10.8,4.7,21.6,9.4,32.4,14.1c1.4,0.6,2.7-1.5,1.2-2.1c-10.8-4.7-21.6-9.4-32.4-14.1
										C444.9,266.5,443.7,268.6,445.1,269.3L445.1,269.3z"/>
								</g>
							</g>
							<g>
								<g>
									<path class="st8" d="M437.1,276.1c8,9.8,16,19.5,24,29.3c1,1.2,2.7-0.5,1.7-1.7c-8-9.8-16-19.5-24-29.3
										C437.8,273.2,436.1,274.9,437.1,276.1L437.1,276.1z"/>
								</g>
							</g>
							<g>
								<g>
									<path class="st1" d="M379.7,317.2c-7.4,4.4-12.9,13.9-16.9,21.3c-2.7,4.9-3.6,9.3-4.3,14.8c-2.4,19.5-3.8,39.1-4.8,58.7
										c-0.5,10.6-0.9,21.3-0.4,31.9c0.1,1.6,2.5,1.6,2.5,0c-1.2-24.3,1.1-49,3.3-73.2c0.7-7.9,1-16.2,2.8-23.9
										c1.1-4.8,4.1-9.3,6.7-13.4c3.2-5,7-11,12.3-14.2C382.3,318.5,381,316.3,379.7,317.2L379.7,317.2z"/>
								</g>
							</g>
						</g>
						<path class="st1" d="M404.7,417.9c0,49-32,65.6-60.4,65.6s-60.4-16.6-60.4-65.6H404.7z"/>
					</g>
					<ellipse class="st10" cx="344.3" cy="482.4" rx="99.6" ry="0"/>
				</g>
				<g class="st7">
					<g>
						<g>
							<g>
								<path class="st1" d="M606,168.9c-13.8-15.7-35.1-13.4-50.1-0.7c-11.4,9.6-17.8,24.1-20,38.8c-2.2,14.7-0.5,29.7,2.1,44.4
									c1.7,9.7,3.8,19.5,8.7,28.1c4.8,8.6,12.7,15.9,22.4,17.9c10.4,2.1,27.7,2.8,40.1-20.8L586,252.9h30.6
									c3.8-15,5.2-29.3,3.9-44C619.4,194.5,615.5,179.7,606,168.9z"/>
								<g>
									<path class="st1" d="M606.9,168.1c-11.2-12.3-27.9-14.3-42.5-6.9c-16.4,8.3-26,25.6-29.2,43.2c-2,11.1-1.7,22.5-0.4,33.6
										c1.3,10.9,2.9,22.1,6.5,32.4c5.2,15,16,27.4,32.4,29.1c16.6,1.7,28.9-8.2,36.5-22.3c0.3-0.5,0.2-1.1-0.2-1.5
										c-7.7-8-15.5-16-23.2-24c-0.3,0.7-0.6,1.4-0.9,2.1c10.2,0,20.4,0,30.6,0c0.5,0,1.1-0.4,1.2-0.9
										C624.9,225.9,626,190.7,606.9,168.1c-1-1.2-2.8,0.5-1.7,1.7c8.9,10.5,12.7,23.9,14.1,37.3c0.7,6.9,0.8,14,0.3,20.9
										c-0.5,7.1-1,15.6-3.6,22.4c-0.6,1.4,1.4,0.2-0.5,0.9c-0.8,0.3-2.3,0-3.2,0c-3.6,0-7.3,0-10.9,0c-5.1,0-10.2,0-15.3,0
										c-1.1,0-1.6,1.3-0.9,2.1c6.8,7,13.6,14.1,20.4,21.1c0.5,0.5,2.5,2,2.7,2.8c-0.1-0.7-3.2,4-3.6,4.5c-1.7,2.5-3.7,4.9-5.9,7
										c-5.7,5.4-12.9,8.4-20.8,8.4c-23.3,0.2-33.8-20.9-37.8-41c-4.8-23.8-7.5-50.7,4.9-72.7c11.9-21.2,41.2-34.4,60.1-13.7
										C606.2,171,608,169.2,606.9,168.1z"/>
								</g>
							</g>
							<g>
								<g>
									<path class="st8" d="M578.7,287.8c2.3-39.7,3-79.5,3.9-119.3c0.1-3.8,0.2-7.7,0.2-11.5c0-1.6-2.4-1.6-2.5,0
										c-0.6,32.6-1.5,65.2-2.7,97.8c-0.4,11-0.9,22-1.5,33C576.1,289.4,578.6,289.3,578.7,287.8L578.7,287.8z"/>
								</g>
							</g>
							<g>
								<path class="st1" d="M641.5,101.7c-20.9,0.2-33,17.9-33.1,37.5c-0.1,14.9,6.7,29.2,16.5,40.4c9.8,11.2,22.3,19.7,35.1,27.3
									c8.5,5,17.3,9.8,27,11.7c9.7,1.9,20.4,0.7,28.2-5.3c8.4-6.5,20-19.3,10.2-44l-13.4-21.3c-8.3-12.2-18.8-22.9-30.7-31.5
									C669.5,108.1,655.8,101.6,641.5,101.7z"/>
								<g>
									<path class="st1" d="M641.5,100.5c-24.7,0.7-37.3,24.7-33.7,47.3c5,31,34,51.5,59.8,65c12.3,6.4,26.8,10.9,40.4,5.9
										c8.4-3.1,15.8-10.2,19.4-18.3c4.3-9.6,3.6-22.4-1.2-31.7c-3.3-6.4-7.8-12.4-11.6-18.4C699.4,125.9,671.7,100.7,641.5,100.5
										c-1.6,0-1.6,2.4,0,2.5c28.1,0.2,54.6,23.4,69.4,45.7c7.6,11.6,16.8,23.3,17,37.8c0.1,9.2-3.8,17.3-10.5,23.5
										c-10,9.1-23.4,10.1-35.9,6.1c-13.1-4.2-25.6-12.3-36.7-20.3c-11.3-8.1-21.6-17.9-28.2-30.2c-6.7-12.5-9.2-27.6-4.2-41.2
										c4.7-12.7,15.6-20.9,29.2-21.3C643,102.9,643,100.4,641.5,100.5z"/>
								</g>
							</g>
							<g>
								<g>
									<path class="st8" d="M714,199.9c-28.7-27.6-58.4-54.1-88-80.6c-2.9-2.6-5.7-5.1-8.6-7.7c-1.2-1.1-2.9,0.7-1.7,1.7
										c24.3,21.7,48.6,43.5,72.5,65.7c8.1,7.5,16.2,15,24.1,22.6C713.4,202.7,715.1,201,714,199.9L714,199.9z"/>
								</g>
							</g>
							<g>
								<g>
									<path class="st8" d="M535.5,234.1c14.9-0.8,29.9-1.6,44.8-2.3c1.6-0.1,1.6-2.5,0-2.5c-14.9,0.8-29.9,1.6-44.8,2.3
										C533.9,231.7,533.9,234.2,535.5,234.1L535.5,234.1z"/>
								</g>
							</g>
							<g>
								<g>
									<path class="st8" d="M536,208.3c15,1.4,29.4,6.6,44.4,8c1.6,0.1,1.6-2.3,0-2.5c-15-1.4-29.4-6.6-44.4-8
										C534.4,205.6,534.4,208.1,536,208.3L536,208.3z"/>
								</g>
							</g>
							<g>
								<g>
									<path class="st1" d="M581.9-9.4c-0.5,48.6-0.9,97.2-1.4,145.7c-0.1,6.9-0.1,13.7-0.2,20.6c0,1.6,2.4,1.6,2.5,0
										c0.5-48.6,0.9-97.2,1.4-145.7c0.1-6.9,0.1-13.7,0.2-20.6C584.4-10.9,582-10.9,581.9-9.4L581.9-9.4z"/>
								</g>
							</g>
							<g>
								<g>
									<path class="st1" d="M544.9,160.4c-3.2-7.1-9.3-13.2-17-17c-11.5-5.8-25.2-5.9-37.6-2.6s-23.7,9.7-34.5,16.7
										c-7.1,4.7-14.2,9.7-19.4,16.4c-5.2,6.8-8.1,24.7-6.4,33.1L544.9,160.4z"/>
									<g>
										<path class="st1" d="M546,159.8c-6-12.6-18.7-20.2-32.3-22c-15.7-2.1-31.2,3-44.9,10.4c-7.1,3.8-14,8.2-20.6,13
											c-5.3,3.9-11.1,8.6-14.3,14.5c-4.8,8.9-6.8,21.6-5,31.6c0.1,0.6,0.9,1.1,1.5,0.9c33.5-13.6,67-27.2,100.5-40.8
											c4.8-1.9,9.5-3.9,14.3-5.8c1.4-0.6,0.8-3-0.7-2.4c-33.5,13.6-67,27.2-100.5,40.8c-4.8,1.9-9.5,3.9-14.3,5.8
											c0.5,0.3,1,0.6,1.5,0.9c-1.7-9.3,0.2-21.9,5-30.1c6.6-11.4,21.1-19.1,32.2-25.3c12.3-6.8,25.9-11.9,40.2-11.4
											c14.5,0.6,28.8,7.7,35.2,21.2C544.6,162.5,546.7,161.2,546,159.8z"/>
									</g>
								</g>
								<line class="st9" x1="447.3" y1="163.5" x2="466.5" y2="192.2"/>
								<line class="st9" x1="492.3" y1="140.2" x2="500.3" y2="178.5"/>
								<line class="st9" x1="503.1" y1="138.7" x2="505.8" y2="176.3"/>
							</g>
							<g>
								<g>
									<path class="st1" d="M578.1-7.3c-0.6,19.6-3.4,39.4-5.3,59c-2.3,24.2-4.5,48.3-7.3,72.4c-0.4,3.2-0.9,5.9-2,8.9
										c-3.5,9.6-9.5,21.7-19.2,26.3c-1.4,0.7-0.2,2.8,1.2,2.1c7.8-3.7,12.9-12,16.7-19.4c2.3-4.4,4.4-9.2,5.2-14.1
										c1.3-8.3,1.9-16.7,2.8-25c2.9-28.2,5.6-56.5,8.2-84.8c0.8-8.5,1.9-17,2.1-25.5C580.6-8.9,578.1-8.9,578.1-7.3L578.1-7.3z"
										/>
								</g>
							</g>
							<g>
								<g>
									<path class="st8" d="M657.7,156c-6,11.9-12,23.7-18,35.6c-0.7,1.4,1.4,2.7,2.1,1.2c6-11.9,12-23.7,18-35.6
										C660.6,155.8,658.4,154.6,657.7,156L657.7,156z"/>
								</g>
							</g>
							<g>
								<g>
									<path class="st8" d="M681.4,167.4c10.8-4.7,21.6-9.4,32.4-14.1c1.4-0.6,0.2-2.8-1.2-2.1c-10.8,4.7-21.6,9.4-32.4,14.1
										C678.7,165.9,679.9,168,681.4,167.4L681.4,167.4z"/>
								</g>
							</g>
							<g>
								<g>
									<path class="st8" d="M673.8,160.1c8-9.8,16-19.5,24-29.3c1-1.2-0.7-3-1.7-1.7c-8,9.8-16,19.5-24,29.3
										C671.1,159.6,672.8,161.4,673.8,160.1L673.8,160.1z"/>
								</g>
							</g>
							<g>
								<g>
									<path class="st1" d="M615.9,115.3c-5.2-3.1-9.1-9.2-12.3-14.2c-2.6-4.1-5.6-8.6-6.7-13.4c-1.8-7.7-2.1-16-2.8-23.9
										c-2.2-24.2-4.5-48.9-3.3-73.2c0.1-1.6-2.4-1.6-2.5,0c-1,20.1,0.6,40.4,2.2,60.4c0.7,9.1,1.5,18.2,2.6,27.3
										c0.6,5,0.9,10,3,14.6c3.9,8.4,10.3,19.7,18.5,24.6C616,118.2,617.3,116.1,615.9,115.3L615.9,115.3z"/>
								</g>
							</g>
						</g>
						<path class="st1" d="M639.7,16.9c0-49-32-65.6-60.4-65.6s-60.4,16.6-60.4,65.6H639.7z"/>
					</g>
					<ellipse class="st10" cx="579.3" cy="-47.6" rx="99.6" ry="0"/>
				</g>
			</g>
			<path class="st11" d="M443.9,168.7c-1.4-5,1.7-10,4.7-14.3c1.2-1.7,2.5-3.5,4.4-4c2.1-0.5,4.3,0.6,5.6,2.4c1.3,1.7,1.7,4,1.9,6.1
				c0.5,5.2-0.4,10.4-2.4,15.2c-0.4,0.8-0.8,1.7-1.6,2.2c-0.8,0.5-2,0.5-2.5-0.2c-0.4-0.5-0.3-1.2-0.3-1.8c0.3-3.3,1.4-6.8,4-8.9
				s6.9-2.3,8.9,0.4c1.4,1.8,1.4,4.4,1.3,6.7c4.1-6.2,10.6-10.7,17.9-12.4c1.1-0.3,2.3-0.4,3.3,0s1.9,1.5,1.6,2.6"/>
		</g>
		<g>
			<g>
				
					<image style="overflow:visible;opacity:0.2;" width="389" height="355" xlink:href="2FA447BD3C108F61.png"  transform="matrix(1 0 0 1 160.3625 302.169)">
				</image>
				<g>
					<rect x="212.8" y="345.3" class="st8" width="283.1" height="248.6"/>
					<rect x="212.8" y="345.3" class="st12" width="283.1" height="248.6"/>
				</g>
			</g>
			<g>
				<circle class="st13" cx="229.7" cy="360.1" r="7.4"/>
				<g>
					<line class="st14" x1="248.1" y1="357.4" x2="328.1" y2="357.4"/>
					<line class="st14" x1="248.1" y1="364.4" x2="381.1" y2="364.4"/>
				</g>
				<g>
					<line class="st14" x1="223.1" y1="580.4" x2="456.1" y2="580.4"/>
					<line class="st14" x1="223.1" y1="573.4" x2="473.1" y2="573.4"/>
				</g>
			</g>
			<g>
				<rect x="221.8" y="377.5" class="st13" width="265.2" height="185.9"/>
				<g>
					<g>
						<path class="st8" d="M237.5,449.2c2.9-6.9,12.3-10,19-11.5c7.3-1.6,14.9-1.3,22.1,0.8c12.8,3.8,23.1,13.4,29.9,24.8
							c6.5,10.9,11.7,25.6,8,38.4c-4.5,15.7-20.8,13.8-31.8,6.5c-5.6-3.7-11.1-9.1-12.7-15.9c-1.9-8.1,3.1-15.1,8.2-20.9
							c8.9-10.1,23.7-21.2,38-19.7c7.5,0.8,13.6,6,16,13.1c0.6,1.9,1.8,4.2-2.9,2.3c-1.5-0.6-2.6-3.1-3.4-4.4
							c-2.1-3.4-3.6-7.2-4.7-11c-3.8-13-1.4-28.4,11.6-35.1c10.6-5.5,23.5-3.4,33.4,2.5c11.6,6.9,18.6,18.9,20.6,32.1
							c2.3,15.1-1.1,30.3-6.2,44.5c-2.2,6.3-5.5,12.5-7.3,18.9c-1.4,4.9-0.6,9.6,3.5,12.9c3.7,2.9,8.7,3.5,13.1,4
							c7.1,0.8,14.3,0.4,21.4-1.1c10.5-2.3,21.7-6.9,27.5-16.4c5.9-9.6,4.6-22,0-31.9c-2.6-5.5-6.5-10.3-10.7-14.6
							c-3.9-3.9-8.7-9.3-13.8-11.6c-12.2-5.5-13.7,15.4-12.2,22.5c2.6,12.4,12.8,21.5,25.2,23.2c28.5,3.8,45.7-26.1,45.5-51
							c0-2.3-3.5-2.3-3.5,0c0.1,17.2-7.1,36-23.2,44.1c-16,8-36.8,1.4-40.6-17.3c-0.9-4.2-0.8-8.7,0.5-12.8c0.3-0.9,0.9-3.1,1.6-3.7
							c1.1-0.2,2.1-0.4,3.2-0.6c1.7-1.1,3.1-1.1,4.3,0.3c1.9,1,3.7,3.1,5.3,4.5c6.4,5.7,12.5,12,16,20c3.4,8,4.5,17.8,0.3,25.8
							c-4.1,7.6-12,11.9-20,14.5c-9.1,2.9-18.8,3.8-28.2,2.4c-3.9-0.6-8.5-1.3-11-4.7c-3.4-4.6,0.8-11.5,2.7-16.1
							c6.4-16,11.9-32.8,10.8-50.2c-0.9-14.4-6.5-28.1-18-37.2c-9.3-7.4-21.7-11.3-33.5-8.9c-14.5,3-23.5,15.3-23.4,29.9
							c0.1,7.9,2.4,15.8,6.2,22.6c2.6,4.7,7.7,11.6,13.7,7.9c0.5-0.3,0.9-0.9,0.9-1.5c-0.9-9.4-7-18.2-16.5-20.7
							c-11-2.9-23,2.5-31.8,8.7c-8.3,5.8-17.5,14.3-21.1,24c-3.6,9.8,1.2,19.4,8.7,25.9c6.7,5.9,16,10.7,25.2,9.9
							c9.3-0.8,15.4-8.2,17.2-16.9c4.1-20.4-8.1-43.9-23.8-56.3c-9.6-7.6-21.6-11.8-33.9-10.9c-10.2,0.7-24.2,4.6-28.5,15
							C233.2,450.3,236.6,451.2,237.5,449.2L237.5,449.2z"/>
					</g>
				</g>
			</g>
		</g>
		<g>
			<rect x="518.4" y="391.4" class="st15" width="182" height="36.5"/>
			<circle class="st13" cx="534.6" cy="409.7" r="13.5"/>
			<g>
				<line class="st16" x1="558.1" y1="400.4" x2="637.1" y2="400.4"/>
				<line class="st14" x1="558.1" y1="410.4" x2="691.1" y2="410.4"/>
				<line class="st14" x1="558.1" y1="418.4" x2="659.1" y2="418.4"/>
			</g>
		</g>
		<g>
			<rect x="518.4" y="345.4" class="st15" width="182" height="36.5"/>
			<circle class="st13" cx="534.6" cy="363.7" r="13.5"/>
			<g>
				<line class="st16" x1="558.1" y1="354.4" x2="637.1" y2="354.4"/>
				<line class="st14" x1="558.1" y1="364.4" x2="691.1" y2="364.4"/>
				<line class="st14" x1="558.1" y1="372.4" x2="659.1" y2="372.4"/>
			</g>
		</g>
		<g>
			<rect x="518.4" y="483.4" class="st15" width="182" height="36.5"/>
			<circle class="st13" cx="534.6" cy="501.7" r="13.5"/>
			<g>
				<line class="st16" x1="558.1" y1="492.4" x2="637.1" y2="492.4"/>
				<line class="st14" x1="558.1" y1="502.4" x2="691.1" y2="502.4"/>
				<line class="st14" x1="558.1" y1="510.4" x2="659.1" y2="510.4"/>
			</g>
		</g>
		<g>
			<rect x="518.4" y="437.4" class="st15" width="182" height="36.5"/>
			<circle class="st13" cx="534.6" cy="455.7" r="13.5"/>
			<g>
				<line class="st16" x1="558.1" y1="446.4" x2="637.1" y2="446.4"/>
				<line class="st14" x1="558.1" y1="456.4" x2="691.1" y2="456.4"/>
				<line class="st14" x1="558.1" y1="464.4" x2="659.1" y2="464.4"/>
			</g>
		</g>
	</g>
</g>
<g>
	<g>
		<g>
			
				<image style="overflow:visible;opacity:0.2;" width="248" height="223" xlink:href="2FA447BD3C108F63.png"  transform="matrix(1 0 0 1 624.6922 253.4987)">
			</image>
			<g>
				<rect x="655.2" y="278.5" class="st8" width="186.9" height="161.9"/>
				<rect x="655.2" y="278.5" class="st12" width="186.9" height="161.9"/>
			</g>
		</g>
		<rect x="668.3" y="406" class="st17" width="160.6" height="19.6"/>
		<path class="st18" d="M718.6,416.8c2.9-2.8,6.4-4.8,10-5.7c4.3-1.1,9.5-0.2,11.7,4.2c0.3,0.6,0.6,1.4,0.5,2.1
			c-0.1,0.8-0.7,1.4-1.2,1.9c-1.2,1.2-2.4,2.5-4,2.8c-1.5,0.4-3.4-0.5-3.7-2.4c-0.3-1.7,0.7-3.3,1.9-4.2c3.9-3,8.9-1,13.3,0.1
			c4.8,1.2,9.7,1.3,14.5,0.3c0.6-0.1,1.3-0.3,1.8-0.7c1.6-1.4,0.8-5-1.1-5.5c-1.9-0.6-3.9,1.5-4.2,3.9c-0.2,2.4,1,4.7,2.7,5.9
			c1.7,1.3,3.7,1.6,5.7,1.6c4.2,0,8.4-1.4,11.8-4.2"/>
	</g>
	<g>
		<line class="st14" x1="665.1" y1="369.4" x2="821.1" y2="369.4"/>
		<line class="st14" x1="665.1" y1="356.4" x2="832.1" y2="356.4"/>
		<line class="st14" x1="665.1" y1="342.4" x2="832.1" y2="342.4"/>
		<line class="st16" x1="665.1" y1="317.4" x2="808.1" y2="317.4"/>
		<line class="st16" x1="665.1" y1="299.4" x2="832.1" y2="299.4"/>
	</g>
</g>
<g>
	<g>
		<path class="st19" d="M713.7,610.2c-0.6,1.4-1.2,2.8-1.8,4.2c-0.7,1.6-0.5,3.3-1.6,4.8c-1.7,2.3-5.1,2.5-8,2.5
			c-3.8,0-7.7-0.1-11.5-0.1c-3.8,0-8.2,0.2-10.5,3.2c-1.6,2.2-2.3,5.1-2.2,7.7c0,0,46.5,0.6,47,0c0.3-0.4,0.4-2.6,0.4-3.1
			c0.1-6.4-0.4-12.7-1.5-19"/>
		<g>
			<path class="st19" d="M713.3,610c-2.2,4.9-3.4,10.9-9.7,11.2c-5.3,0.3-10.7-0.5-16.1,0c-6.6,0.6-10,4.8-9.9,11.4
				c0,0.3,0.2,0.5,0.5,0.5c11.2,0.2,22.3,0.3,33.5,0.3c2.9,0,5.8,0,8.7,0c1.1,0,3.6,0.4,4.6-0.2c1.1-0.6,1-1.7,1-3
				c0.4-6.6-0.4-13.3-1.5-19.8c-0.1-0.6-1.1-0.4-1,0.3c0.9,5,1.4,10,1.5,15c0,1.6,0.6,5.7-0.6,6.5c-1.4,1-6.3,0.1-7.9,0.2
				c-8.7,0-17.4,0-26-0.1c-3.2,0-6.4-0.1-9.6-0.1c-0.3,0-2.1,0.2-2.3,0c-0.1-0.1,0.3-1.7,0.4-2.1c1-3.4,1.9-6.1,5.7-7.2
				c7-2.2,14.7,0.7,21.8-0.7c5.8-1.2,5.8-6.8,7.9-11.5C714.4,609.9,713.6,609.4,713.3,610L713.3,610z"/>
		</g>
	</g>
	<g>
		<g>
			<path class="st20" d="M708.8,620.8c0.7,0.1,1.5,0.3,2.2,0.6c0.5,0.2,1.1,0.1,1.4-0.4c0.3-0.4,0.1-1.1-0.4-1.4
				c-1-0.5-2.1-0.7-3.2-0.9c-0.5-0.1-1,0.5-1,1C707.8,620.4,708.3,620.8,708.8,620.8L708.8,620.8z"/>
		</g>
	</g>
	<g>
		<g>
			<path class="st20" d="M710.3,618.2c1,0.2,2,0.5,3,1c1.1,0.6,2.2-1.1,1-1.7c-1.1-0.6-2.2-1-3.4-1.2
				C709.5,616,709,617.9,710.3,618.2L710.3,618.2z"/>
		</g>
	</g>
	<g>
		<g>
			<path class="st20" d="M712.2,615.5c1.2,0,2.4,0.3,3.5,0.7c0.5,0.2,1.1-0.2,1.2-0.7c0.2-0.6-0.2-1-0.7-1.2
				c-1.3-0.5-2.7-0.8-4.1-0.8C710.9,613.4,710.9,615.4,712.2,615.5L712.2,615.5z"/>
		</g>
	</g>
	<g>
		<path class="st21" d="M737.6,462.5c0.1-0.4,0.2-0.7,0.3-1.1c-8.1,17.7-14.9,36-20.5,54.6c-0.9,3-1.8,6.1-2.3,9.2
			c-0.5,3.4-0.6,6.9-0.7,10.4c-0.6,25-1.2,50.1-1.8,75.1c0,1,0,3,0,3s2,0.4,2.7,0.5c2.5,0.3,4.9,0.7,7.4,0.6c2.4,0,4.5-0.8,6.7-1.7
			c0.2-0.1,0.3-0.2,0.4-0.3c0.1-0.1,0.1-0.3,0.1-0.4c0-1.7,0.2-3.4,0.1-5.1c-0.1-1.6-0.4-3.2-0.3-4.8c0-3.1,0.2-6.1,0.4-9.1
			c0.7-12,2.4-23.8,4.1-35.7c2.7-18.7,5.6-38.2,16.6-53.6"/>
		<g>
			<path class="st21" d="M738.6,462.8c0.1-0.4,0.2-0.7,0.3-1.1c0.3-1.1-1.3-1.8-1.8-0.8c-5.3,11.8-10.2,23.8-14.5,36
				c-4.2,12-8.7,24.1-9.1,36.9c-0.9,26.5-2,53.3-1.8,79.8c0,0.4,0.3,0.9,0.7,1c4.5,0.9,16.6,3.5,18.6-2.2c0.8-2.3-0.1-5.8-0.2-8.3
				c-0.2-3,0-6,0.2-8.9c0.3-6.6,1-13.2,1.8-19.7c2.9-23.8,4.8-50.6,18.8-70.9c0.7-1.1-1-2.1-1.7-1c-9.5,13.7-13.1,30.1-15.6,46.4
				c-2.7,17.6-6.5,36.3-5.5,54.2c0.3,5.5,0.9,9.3-6,9.7c-2.7,0.1-5.3-0.7-7.9-0.7c-0.3,0-1-0.1-1.3-0.3c-0.7-0.4,0.3,1.2,0-0.3
				c-0.6-3.7,0.1-8,0.2-11.7c0.1-5.3,0.2-10.5,0.4-15.8c0.2-10.2,0.5-20.4,0.7-30.6c0.2-9.8-0.4-20.2,1.3-29.8
				c1.9-10.4,5.9-20.7,9.5-30.6c3.9-10.8,8.3-21.5,13-32c-0.6-0.3-1.2-0.5-1.8-0.8c-0.1,0.4-0.2,0.7-0.3,1.1
				C736.3,463.5,738.3,464.1,738.6,462.8L738.6,462.8z"/>
		</g>
	</g>
	<g>
		<path class="st19" d="M796.3,606.8c-1.2,5-2.5,9.9-3.7,14.9c-4.1-0.1-8.2,0.3-12.2,1.1c-2.6,0.5-5.2,1.3-7.1,3s-3.2,4.5-2.4,7
			c7.2,0,14.4,0.1,21.6,0.1c1.8,0,3.8,0,5.4-0.9c1.4-0.8,2.4-2.1,3.4-3.3c3-3.5,6.8-6.2,11-7.8c0.6-0.2,1.2-0.5,1.3-1.1
			c0.1-0.4-0.1-0.7-0.3-1.1c-2.1-3.6-4.3-7.3-6.4-10.9"/>
		<g>
			<path class="st19" d="M795.8,606.6c-0.8,3.4-1.5,13-5,14.5c-1.7,0.7-5.1,0.3-7,0.5c-1.7,0.2-3.5,0.5-5.1,1
				c-4.9,1.4-9.5,4.6-8.3,10.2c0,0.2,0.3,0.4,0.5,0.4c7.2,0,14.4,0.2,21.6,0.1c5.6-0.1,6.9-2.2,10.7-6c2.3-2.3,5-4.1,8-5.5
				c1.1-0.5,2.5-0.7,2.9-2c0.3-0.8-1-2.5-1.3-3.1c-1.7-3.2-3.7-6.2-5.5-9.3c-0.3-0.6-1.2-0.1-0.9,0.5c1.5,2.6,3.3,5.1,4.6,7.8
				c0.9,0.9,1.2,1.9,1,3.1c0.5,1.3,0.1,2-1.3,2.1c-0.9,0.8-2.3,1.2-3.3,1.8c-1.7,1.1-3.4,2.4-4.8,3.9c-0.9,0.9-1.7,2-2.6,2.9
				c-2.8,2.6-4.1,2.7-7.4,2.8c-3.3,0.1-6.5,0-9.8,0c-1.8,0-8.5,1-9.8,0c-5.8-4.5,5.8-8.6,8.6-9.2c3.7-0.7,7.4-1,11.2-0.9
				c0.2,0,0.4-0.2,0.5-0.4c1.2-5,2.5-9.9,3.7-14.9C796.9,606.3,796,606,795.8,606.6L795.8,606.6z"/>
		</g>
	</g>
	<g>
		<path class="st22" d="M738.2,474.4c2.1,31.4,15.5,60.9,29,89.3c3.5,7.5,7.1,14.9,11.4,22c4.3,7.1,9.5,13.6,14,20.5
			c0.8,1.3,2.7,4.2,2.7,4.2s4.7-0.2,5.1-0.3c0.5-0.1,1-0.2,1.5-0.3c2.3-0.5,4.4-1.8,6.3-3.1c-3-6.7-5.2-13.8-7.8-20.6
			c-2.7-7.1-5.6-14.2-8.6-21.2c-3.2-7.3-6.6-14.5-10.4-21.6c-3.6-6.8-4.3-12.1-4.2-19.9c0.2-9.6,0.4-19.2,0.6-28.8
			c0.1-2.8,0.1-5.6,0.7-8.3c0.7-3.4,2.1-6.6,2.9-10c1.1-4.5,1-9.2-0.2-13.7"/>
		<g>
			<path class="st22" d="M737.2,474.4c1.9,25.4,10.7,49.4,21,72.5c5.5,12.2,10.9,24.5,17.5,36.1c5.5,9.8,12.6,18.6,18.6,28.1
				c0.2,0.3,0.5,0.5,0.9,0.5c5.1-0.2,8.9-0.9,13.4-3.8c0.5-0.3,0.6-0.9,0.4-1.4c-5.2-12-9.1-24.5-14.1-36.6
				c-2.4-5.7-4.9-11.4-7.6-17c-2.8-5.8-6.6-11.4-8.1-17.7c-1.4-5.9-0.9-12.2-0.8-18.3c0.1-6.7,0.3-13.4,0.4-20.1
				c0.1-6.5,1.4-12,3.2-18.2c1.5-5.3,1.5-10.5,0.3-15.9c-0.3-1.3-2.2-0.7-1.9,0.5c1.8,7.9-0.4,14-2.4,21.4c-1.4,5.2-1.1,10.7-1.2,16
				c-0.1,7-0.3,14.1-0.4,21.1c-0.1,5.2-0.1,10.4,1.4,15.4c1.6,5.3,4.7,10.1,7.1,15.1c3,6.1,5.8,12.3,8.4,18.5
				c5.1,12.1,8.9,24.7,14.2,36.7c0.1-0.5,0.2-0.9,0.4-1.4c-2.9,1.8-5.7,3.1-9.1,3.4c-0.6,0.1-1.9,0.3-2.6,0.1
				c-1.3-0.3,0.8,1.1-0.4-0.3c-3.6-3.8-6.2-9.3-9.2-13.6c-8.5-12-14.8-24.8-21-38.1c-12.4-26.4-23.9-53.7-26.1-83.1
				C739.1,473.1,737.1,473.1,737.2,474.4L737.2,474.4z"/>
		</g>
	</g>
</g>
<g>
	<g>
		<g>
			<path class="st22" d="M82.1,277.8c4,1.1,7.7,3,10.7,5.3c6.3,4.7,9.8,12.2,11.7,19.6c4,15.5,2.6,32.9-1,48.4
				c-5,21.3-14.1,41.6-17.7,63.2c-1.1,6.8-1.7,13.8-4.7,20.1c-2.7,5.9-8.3,11.2-14.8,11c-4.8-0.1-9-3.1-12.4-6.4
				c-3.4-3.3-6.4-7.2-10.4-9.9c-2.2-1.4-4.6-2.5-6.6-4.2c-5.3-4.4-6.8-12-6.5-18.8c0.4-8.8,3.4-17.5,8.4-24.7
				c4.6-6.6,10.8-12.1,14.9-19c5.4-9.1,7-20.5,6.7-31c-0.3-10.8-5.3-21.5-3.9-32.5c0.4-3.2,1.3-6.4,2.6-9.4c1.6-3.9,3.7-7.8,7.3-10
				C71.1,276.5,76.7,276.4,82.1,277.8z"/>
			<g>
				<path class="st22" d="M81.2,278.7c27.5,8.2,26.4,44.7,22,67.4c-4.9,25-15.6,48.3-19.6,73.5c-1,6.1-2,12.6-5.5,17.8
					c-2.1,3.1-4.9,5.7-8.6,6.7c-5,1.2-9.4-1.4-13-4.6c-3.8-3.4-6.9-7.6-11.1-10.7c-5.4-3.9-10.2-5.9-12.3-12.7
					c-3.6-11.7,0.8-25.7,7.7-35.3c6.8-9.6,15.3-16.9,18.7-28.6c3.8-12.9,2.2-25.2-0.3-38.2c-1.4-7.3-2-14.4,0.3-21.5
					c1.2-3.7,2.9-7.8,5.7-10.6C69.5,277.5,75.6,277.3,81.2,278.7c1,0.2,3.4-1.3,1.7-1.7c-11.6-2.7-20.8,1.7-25.3,12.8
					c-5.8,14.4,0.8,27.3,1.3,41.9c0.3,7.5-0.5,15.3-2.9,22.4c-2.7,7.9-7.7,13.9-13,20.2c-8.5,10-14.5,21.7-14,35.2
					c0.2,5.9,1.9,12.1,6.6,16.1c2.1,1.7,4.6,2.8,6.8,4.3c3.2,2.2,5.8,5.2,8.5,8c7.3,7.6,17,11.9,26,4.2c10.1-8.8,9.4-24.7,12.2-36.8
					c3.6-15.4,9.3-30.2,13.6-45.4c7.3-25.7,13.9-72.7-19.7-82.8C81.9,276.6,79.5,278.2,81.2,278.7z"/>
			</g>
		</g>
		<path class="st23" d="M77.4,352.6c0,0,1.7-36.5-3.2-35.4c-4.9,1.1-7.6-3-7.1-5.7c0.6-3,4.4-2.5,6,0.5c5-0.4,12.2-27.6,12.2-27.6
			s13.6,6.7,15.9,23.7c2.1,15.4-1.8,21.2-2.7,21.9s-6.9-0.3-7.6-0.6c-0.7-0.4-4.9,13.1,1.1,27.4"/>
		<circle class="st24" cx="85.1" cy="305.3" r="1.9"/>
		<circle class="st25" cx="86.3" cy="309.9" r="1.9"/>
		<circle class="st24" cx="96.9" cy="302.5" r="1.7"/>
		<circle class="st25" cx="98.7" cy="306.8" r="1.7"/>
		<g>
			<path class="st26" d="M92.4,304.9c0.6,1.8,1.1,3.7,2,5.4c0.2,0.3,0.4,0.7,0.7,0.9c0.3,0.2,0.7,0.4,1,0.2c0.5-0.2,0.7-0.9,0.6-1.4
				c-0.1-0.5-0.5-1-0.9-1.4c-1.6-1.8-2.8-3.7-4-5.8C91.7,303.5,92.1,304.3,92.4,304.9z"/>
			<g>
				<path class="st26" d="M91.4,305.2c0.5,1.6,2.4,9.6,5.6,6.8c1.1-1,0.6-2.6-0.2-3.6c-1.5-1.9-2.9-3.8-4.2-6
					c-0.5-0.8-1.9-0.5-1.9,0.5C90.8,303.7,91.1,304.4,91.4,305.2c0.5,1.2,2.4,0.7,1.9-0.5c-0.2-0.6-0.6-1.2-0.6-1.8
					c-0.6,0.2-1.2,0.3-1.9,0.5c1.1,1.9,2.3,3.8,3.7,5.5c0.1,0.1,0.3,0.3,0.4,0.4c0.7,0.7,0.7,0.9,0.2,0.5c-0.3-0.6-0.5-1.2-0.8-1.9
					c-0.4-1.1-0.7-2.2-1.1-3.3C92.9,303.4,91,304,91.4,305.2z"/>
			</g>
		</g>
		<g>
			<path class="st24" d="M93,318.5c-0.7-0.1-2.7-0.5-2.9,0.3c-0.2,1,1.6,2.2,2.3,2.4c0.3,0.1,0.7,0.1,1,0.1c0.7,0,1.3,0,2-0.2
				c1-0.3,1.8-1.1,2.2-2.1c0.1-0.3,0.2-0.6,0.1-1c-0.1-0.3-0.4-0.6-0.7-0.6c-0.2,0-0.4,0.1-0.5,0.2C95.6,318.3,94.3,318.6,93,318.5z
				"/>
			<g>
				<path class="st24" d="M93,318.2c-0.9-0.1-3.2-0.7-3.1,0.9c0.1,1.8,2.7,2.5,4.1,2.4c1-0.1,2-0.3,2.8-1c0.6-0.5,1.5-1.6,1.3-2.5
					c-0.1-0.5-0.5-0.8-1-0.8c-0.4,0-0.7,0.3-1,0.5C95.1,318.2,94.1,318.3,93,318.2c-0.3,0-0.3,0.5,0,0.5c1,0.1,2,0,2.9-0.4
					c0.3-0.1,0.6-0.3,0.8-0.4c0.7,0.8,0.8,1.5,0,2c-0.7,0.7-1.4,0.9-2.3,1.1c-1.2,0.1-3.3,0-3.9-1.5c-0.6-1.5,1.8-0.9,2.5-0.8
					C93.3,318.8,93.3,318.3,93,318.2z"/>
			</g>
		</g>
		<g>
			<g>
				<path class="st21" d="M94.8,297.3c0.9-0.5,1.8-0.7,2.7-0.2c0.5,0.2,0.9-0.5,0.4-0.7c-1.2-0.6-2.4-0.5-3.5,0.2
					C93.9,296.8,94.3,297.5,94.8,297.3L94.8,297.3z"/>
			</g>
		</g>
		<g>
			<g>
				<path class="st21" d="M85.7,298.3c-1.3-0.2-2.5,0.3-3.2,1.4c-0.3,0.4,0.4,0.8,0.7,0.4c0.6-0.8,1.6-1.1,2.5-1
					C86.2,299.2,86.2,298.4,85.7,298.3L85.7,298.3z"/>
			</g>
		</g>
		<path class="st27" d="M74.2,317.3c12.7-0.6,2.9,35.7,3.2,33.7l-2,21.7"/>
	</g>
	<g>
		<g>
			<path class="st28" d="M108.8,526l-11.7,68.1c0,0-3.4,19.2-4.3,24.8l-6.1,0.5c2.9-13.5,0.4-29,0.4-42.7
				c-0.1-19.2,0.6-38.5,8.5-56.4"/>
		</g>
		<g>
			<path class="st28" d="M110.8,630.9c1-3-3-2.9-4.3-3.4c-3-1.1-4.9-1.4-7.7-3.2c-2.7-1.7-5.8-7.3-5.8-7.3s-2.6,2.9-5.9,0.7
				c-2.5,1.6-0.7,11.1-0.2,13.1H87l1.1-4.9l10.5,4.9H110.8z"/>
		</g>
		<g>
			<path class="st29" d="M110.8,630.9c0.6-2-0.8-2.8-2.5-2.9c-1.8-0.2-3.1-0.1-4.9-0.9c-3.5-1.7-6.6-4.2-8.9-7.3
				c-0.1-0.2-0.3-0.3-0.4-0.4c-0.2-0.1-0.4,0-0.6,0c-1.2,0.2-2.5,0.1-3.7-0.2c-0.9-0.3-3-0.8-3-0.8c-1,0.7-0.9,3.1-0.9,4
				c0,1.7,0.1,3.3,0.4,5c0.1,0.9,0.3,1.7,0.4,2.6c0.2,1.1,0.2,1.1,1.3,1.1c0.1,0,0.1,0,0.2,0c0,0,0-0.1,0-0.1c0-1.4-0.1-3,0.1-4.4
				c0.7,0.1,1.6,0.7,2.3,1c1.2,0.5,2.3,1,3.5,1.5c1.5,0.7,3.1,2,4.6,2H110.8z"/>
			<g>
				<path class="st29" d="M111.8,631.1c0.1-1.8-0.3-2.9-2-3.7c-0.8-0.4-1.9-0.3-2.7-0.5c-3-0.5-5.4-1.8-7.8-3.7
					c-1.6-1.3-3-4.3-4.9-4.9c-1.2-0.4-3.1,0-4.4-0.3c-1-0.2-2-0.5-3-0.8c-0.5-0.1-0.9,0.1-1.1,0.5c-1.6,2.2-1.1,5.4-0.9,7.9
					c0.1,1.5,0.1,4.9,1.3,5.8c3.5,2.8,2.8-3.8,2.9-5.1c-0.4,0.3-0.8,0.6-1.3,1c4.6,1.6,8.2,4.9,13.1,4.9c3.2,0,6.5,0,9.7,0
					c1.3,0,1.3-2,0-2c-3.1,0-6.2,0-9.3,0c-4.8,0-8.5-3.2-13-4.8c-0.7-0.2-1.2,0.4-1.3,1c-0.1,0.9,0.4,5.2,0.1,1.9
					c-0.2-2.4-0.5-4.6-0.5-7c0-3.1,0.4-1.8,2.6-1.3c1.1,0.2,3.1,0,4,0.3c1.1,0.4,2.3,2.6,3.3,3.4c1.1,1.1,2.4,2,3.7,2.8
					c1.3,0.8,9.5,3.2,9.4,4.6C109.7,632.4,111.7,632.4,111.8,631.1z"/>
			</g>
		</g>
	</g>
	<g>
		<path class="st24" d="M109.6,415.1c0.8,0.8,1.4,2.2,2,4.5c1.8,6.9,2,14,2.3,21.1c0.5,12.9-5.2,165.2-5.2,165.2s-25.7-1.7-36-2.4
			c1.2-22.2,4.8-43.9,7.8-65.9c2.1-15.6,3.3-31.4,1.4-47.1c-0.9-7.1-2.4-13.2-5.3-19.6c-2.7-5.9-4.5-13.3-4-19.8
			c1-13.2,6.1-25.6,9.4-38.3c6.8,0.3,13.7,0.6,20.5,0.9C106.2,413.9,108.2,413.7,109.6,415.1z"/>
		<g>
			<path class="st24" d="M108.9,415.8c3.7,4.6,3.5,13.1,3.8,18.7c0.1,2.5,0.3,5.1,0.3,7.6c0,2.6,0,5.3-0.1,7.9
				c-0.2,9.4-0.5,18.8-0.7,28.2c-0.8,25.9-1.7,51.8-2.6,77.7c-0.4,10.6-0.8,21.3-1.1,31.9c-0.1,3.7-0.3,7.4-0.4,11.1
				c-0.1,1.5-0.8,4.7-0.2,6.1c0.1,0.2-0.1,0.6,0,0.8c-0.3-2.2,1.9-0.3-0.2-1.1c-0.9-0.3-2.3-0.2-3.2-0.2c-7.3-0.5-14.6-1-21.9-1.5
				c-1.7-0.1-3.4-0.2-5-0.3c-0.7,0-1.8,0.1-2.5-0.2c-1.8-0.6-0.4,0.6-1.1-1.1c-0.7-2,0.4-5.7,0.6-7.8c0.3-3.9,0.7-7.8,1.1-11.7
				c1.4-12.8,3.4-25.6,5.1-38.4c1.9-13.7,3.5-27.5,3.1-41.4c-0.2-6-0.7-12.1-1.9-18c-1.2-5.9-3.6-11.1-5.6-16.6
				c-5.1-13.7-1.5-27.3,2.6-40.7c0.9-2.9,1.8-5.7,2.6-8.6c0.4-1.4,0.4-3,1.7-3.9c1.5-1,4.5-0.3,6.3-0.2c3.1,0.1,6.2,0.3,9.3,0.4
				c3,0.1,7.8-0.5,10.3,1.4c1,0.8,2-1,1-1.7c-2.8-2.1-7.1-1.5-10.4-1.6c-5.9-0.3-11.8-0.5-17.7-0.8c-0.4,0-0.9,0.3-1,0.7
				c-3.8,14-10.6,28.8-9.4,43.5c0.6,7.2,3.5,13.2,5.9,19.8c2.9,8.1,3.9,16.7,4.2,25.3c0.6,17.6-2,35.1-4.5,52.5
				c-2.3,16.5-4.6,33.1-5.5,49.7c0,0.6,0.5,1,1,1c12,0.7,24,1.5,36,2.4c0.6,0,1-0.5,1-1c1.8-50,3.8-100,5-149.9
				c0.1-4.4,0.2-8.8,0.2-13.1c0-3.7-0.2-7.3-0.4-11c-0.4-5.5-0.6-12.9-4.2-17.4C109.5,413.4,108.1,414.8,108.9,415.8z"/>
		</g>
	</g>
	<g>
		<path class="st13" d="M109.5,418.4c1.1-0.5,2-1.1,2.6-2.1c0.9-1.3,1.2-3,1.4-4.6c0.7-5.3,1.3-10.6,2-15.9c0.5-3.9,2-7.9,1.8-11.9
			c-0.2-3.2-1.8-5.9-3.8-8.3c-2.2-2.8-15.4-16.1-17-17.4c-0.7-0.6-3.7-4.3-4.4-4.9c-6,0.6-13.5-0.6-14.7-2.3c-1,1.2-2.1,4.9-2.9,6.2
			c-0.7,1.2-1.4,2.6-1.7,4c-0.3,1.2-0.5,2.5-0.6,3.7c-0.6,6.2,0.9,12.1,1.8,18.1c0.8,5.7,2.9,11,3,17c0,4.3-0.6,8.5,0,12.7
			c0.3,2.1,1,4.3,2.7,5.6c2.7,2.1,7.1,1,10.3,1.2c4.8,0.3,9.6,0.3,14.5,0C106.1,419.3,107.9,419.1,109.5,418.4z"/>
	</g>
	<g>
		<path class="st13" d="M76.6,352.2c0.9-1.6,1.7-3.3,2.3-5c2.9,0.7,7.6,1,10.5,0.7c0.7,3.6,1.1,10.6,1.1,10.6s-9.1-4.2-13.8-5.9"/>
		<g>
			<path class="st13" d="M78,352.4c0.9-1.6,1.6-3.3,2.3-5c-0.6,0.3-1.3,0.6-1.9,0.9c3.5,0.8,7.3,1,10.9,0.7
				c-0.4-0.2-0.9-0.5-1.3-0.7c0.6,3.4,0.9,6.9,1,10.3c0.8-0.4,1.5-0.7,2.3-1.1c-4.6-2.1-9.1-4.1-13.8-5.9c-1.2-0.5-3.4,1.3-1.7,2
				c4.7,1.8,9.3,3.8,13.8,5.9c0.7,0.3,2.3-0.1,2.3-1.1c-0.2-3.6-0.4-7.3-1.1-10.9c-0.1-0.6-0.9-0.7-1.3-0.7c-3.4,0.3-6.8,0-10.1-0.7
				c-0.6-0.1-1.6,0.3-1.9,0.9c-0.7,1.7-1.4,3.4-2.3,5C74.5,353.5,77.4,353.5,78,352.4L78,352.4z"/>
		</g>
	</g>
	<polygon class="st30" points="126.4,409 97.6,415.1 89.9,365 118.7,361.4 	"/>
	<g>
		<g>
			<path class="st28" d="M86.5,368.4c-0.2,0.8-0.5,1.7-0.7,2.5c-0.2,0.8-0.4,1.7-0.6,2.5c-0.4,1.7-0.7,3.3-1,5
				c-0.3,1.7-0.5,3.3-0.8,5c-0.3,1.7-0.4,3.4-0.6,5c-0.1,0.8-0.2,1.7-0.3,2.5l-0.2,2.5l-0.2,2.5c-0.1,0.8-0.1,1.7-0.1,2.5
				c0,1.7,0.1,3.4,0.4,5.1c0.1,0.4,0.2,0.9,0.3,1.3c0.1,0.4,0.2,0.9,0.3,1.3c0.3,0.9,0.6,1.7,1,2.6l-12-8.3l21.3-6.2
				c3.5-1,7.1-2.1,10.7-3.1c3.6-1,7.1-2,10.7-3c1.5-0.4,3.1,0.5,3.5,2c0.3,1.2-0.2,2.5-1.2,3.1l0,0c-0.8,0.5-1.6,1-2.4,1.4
				c-0.8,0.5-1.6,0.9-2.4,1.3c-1.6,0.9-3.3,1.7-4.9,2.4c-1.7,0.8-3.4,1.5-5,2.2l-5.1,2.1l-5.1,2.1c-0.8,0.4-1.7,0.7-2.6,1l-2.6,1
				c-1.7,0.6-3.4,1.3-5.2,1.9c-1.7,0.6-3.5,1.2-5.3,1.7l-2.1,0.6l-1.3-3c-0.4-0.9-0.7-1.7-1-2.6c-0.3-0.9-0.5-1.7-0.7-2.6
				c-0.2-0.9-0.4-1.7-0.6-2.6c-0.2-0.9-0.3-1.7-0.4-2.6c-0.1-0.8-0.3-1.7-0.3-2.5l-0.3-2.5c-0.2-1.7-0.4-3.4-0.5-5.1
				c-0.1-1.7-0.3-3.4-0.4-5.1c-0.1-1.7-0.2-3.4-0.3-5.1c-0.1-1.7-0.1-3.4-0.2-5.1l0-2.5c0-0.8,0-1.7,0-2.5l0-1.7
				c0-5.1,4.2-9.1,9.2-9.1c5.1,0,9.1,4.2,9.1,9.2C86.8,366.8,86.7,367.7,86.5,368.4z"/>
		</g>
		<g>
			<g>
				<path class="st28" d="M118.2,381.7c-1.3,1.4-2.3,3-3,4.8c-0.7,1.7-1.2,5.4,1.1,6.3c2.1,0.8,3-1,4.7-2.1c1.8-1.2,3.4-1.9,3.2-4.3
					c-0.2-2.3-0.5-4.9-2.2-6.5c-0.1-0.1-0.3-0.3-0.5-0.3c-0.3-0.1-0.6,0.1-0.8,0.3C119.8,380.2,119,380.9,118.2,381.7z"/>
			</g>
		</g>
		<g>
			<path class="st13" d="M86.2,365.2c0.8,3.6,0.3,7.6-0.3,11c-1.4,7.5-2.9,14.9-4.3,22.4c1.2-1.4,2.9-2.4,4.5-3.3
				c8.1-4.4,17.4-6.6,26.6-6.4c0.3,0,0.5,0,0.8,0.2c0.3,0.2,0.4,0.6,0.5,0.9c0.3,1.3,0.6,2.7,1,4c0.1,0.5,0.2,1,0.1,1.4
				c-0.2,0.4-0.5,0.7-0.9,1c-10.2,7.7-22.4,12.5-34.6,16.2c-2.2,0.6-4.7,1.2-6.5-0.1c-1.1-0.8-1.7-2.1-2-3.4c-0.8-3-0.7-6.1-1.2-9.1
				c-0.5-3.5-0.7-7-1-10.5c-0.5-7.1-0.5-14.3,0.3-21.4c0.6-4.7,2.5-10.7,8.1-10.9c2.3-0.1,4.5,0.9,6.1,2.6
				C84.8,361.1,85.7,363.1,86.2,365.2z"/>
			<g>
				<path class="st13" d="M84.7,365.6c0.9,5.6-0.4,10.9-1.4,16.4c-1.1,5.6-2.1,11.2-3.2,16.8c-0.2,1.2,2.2,0.4,2.6,0.1
					c4.2-4.2,10.8-6.4,16.5-7.8c3.1-0.8,6.5-1.4,9.7-1.3c2.4,0,5.5,1.2,4.6,4.6c-0.8,3-5.8,5.4-8.3,6.9c-2.7,1.5-5.4,2.9-8.2,4.2
					c-5,2.3-10.6,4.8-16,5.9c-2,0.4-6.8,0.2-8.1-1.4c-0.6-0.7-0.7-2.3-0.8-3.1c-0.5-2.7-0.6-5.5-0.9-8.2c-0.6-5.5-1.1-11-1.2-16.5
					c-0.1-5.6-0.2-11.7,1.1-17.2c0.4-1.8,1.3-5.1,3.1-6c2.1-1.1,6.1-0.4,7.8,1.3C83.4,361.6,84.2,363.6,84.7,365.6
					c0.3,1,3.2,0.2,2.9-0.8c-2.3-8.4-13.2-12.4-18.1-3.6c-2.9,5.3-2.6,12.7-2.6,18.5c0,7.5,0.8,14.9,1.5,22.3
					c0.5,4.7,0.3,11.5,6.3,12c5.4,0.4,11.9-2.9,16.8-4.8c6.9-2.6,13.6-5.8,19.8-9.9c1.3-0.9,4.4-2.4,5-4c0.4-1.3-0.5-5.8-1.5-6.7
					c-1.2-1.1-3.9-0.5-5.2-0.5c-3.7,0.2-7.3,0.7-10.8,1.5c-6.4,1.5-13.7,4.1-18.4,8.8c0.9,0,1.7,0,2.6,0.1
					c1.2-6.2,2.4-12.4,3.6-18.6c1-5,1.9-9.8,1-14.9C87.5,363.8,84.6,364.5,84.7,365.6z"/>
			</g>
		</g>
	</g>
</g>
<g>
	<g>
		<g>
			<path class="st31" d="M507.4,541.1c0,0-6.4,71.7-6.6,73.5c-0.1,2.1,0,4.3,1,4.3c0.9,0,1.9-1.6,2.6-3.3
				c0.8-1.8,24.7-74.5,24.7-74.5"/>
			<path class="st31" d="M541.5,541.1c0,0,6.4,71.7,6.6,73.5c0.1,2.1,0,4.3-1,4.3c-0.9,0-1.9-1.6-2.6-3.3
				c-0.8-1.8-24.7-74.5-24.7-74.5"/>
		</g>
		<path class="st32" d="M544.3,542.3h-39.2c-0.8,0-1.5-0.7-1.5-1.5v-4.3c0-0.8,0.7-1.5,1.5-1.5h39.2c0.8,0,1.5,0.7,1.5,1.5v4.3
			C545.8,541.7,545.1,542.3,544.3,542.3z"/>
	</g>
	<g>
		<g>
			
				<image style="overflow:visible;opacity:0.2;" width="284" height="129" xlink:href="2FA447BD3C108F66.png"  transform="matrix(1 0 0 1 284.0378 195.8443)">
			</image>
			<g>
				<g>
					<g>
						
							<image style="overflow:visible;opacity:0.2;" width="205" height="50" xlink:href="2FA447BD3C108F67.png"  transform="matrix(1 0 0 1 323.3756 227.1821)">
						</image>
						<g>
							<path class="st8" d="M512,260.8H338.8c-1.5,0-2.7-1-2.7-2.3v-18.1c0-1.3,1.2-2.3,2.7-2.3H512c1.5,0,2.7,1,2.7,2.3v18.1
								C514.7,259.8,513.5,260.8,512,260.8z"/>
							<path class="st33" d="M512,260.8H338.8c-1.5,0-2.7-1-2.7-2.3v-18.1c0-1.3,1.2-2.3,2.7-2.3H512c1.5,0,2.7,1,2.7,2.3v18.1
								C514.7,259.8,513.5,260.8,512,260.8z"/>
						</g>
					</g>
				</g>
			</g>
		</g>
		<g>
			<circle class="st34" cx="498.1" cy="247.6" r="4.3"/>
			<line class="st34" x1="501.1" y1="250.7" x2="505.7" y2="255.4"/>
		</g>
	</g>
	<g>
		<g>
			<path class="st35" d="M520,284.7c-0.7,0.1-1.4,0.3-2.2,0.4c-0.7,0.1-1.4,0.2-2.2,0.3c-0.7,0.1-1.4,0.2-2.2,0.3l-2.2,0.2
				c-1.4,0.2-2.9,0.2-4.3,0.3c-1.4,0.1-2.9,0.1-4.3,0.2c-0.7,0-1.4,0.1-2.2,0.1l-2.2,0l-2.2,0c-0.7,0-1.4,0-2.2-0.1
				c-1.4-0.1-2.9-0.3-4.3-0.6c-0.4-0.1-0.7-0.2-1.1-0.3c-0.4-0.1-0.7-0.2-1.1-0.3c-0.7-0.2-1.4-0.5-2.1-0.9l4.7,2.1l-14.9-12.7
				l-3.7-3.2l-3.8-3.1l-7.5-6.3c-0.9-0.8-2.3-0.7-3.1,0.3c-0.6,0.8-0.7,1.9-0.1,2.7l0,0.1c0.5,0.7,1,1.3,1.5,2
				c0.5,0.7,1,1.3,1.5,1.9l1.6,1.9c0.5,0.6,1.1,1.2,1.6,1.8c1.1,1.2,2.2,2.4,3.3,3.6l3.4,3.5l3.4,3.5c0.6,0.6,1.2,1.1,1.7,1.7
				l1.7,1.7c1.2,1.1,2.3,2.3,3.5,3.4c1.2,1.1,2.4,2.2,3.6,3.3l1.3,0.6c0.7,0.3,1.4,0.6,2.1,0.9c0.7,0.3,1.4,0.5,2.1,0.7
				c0.7,0.2,1.4,0.4,2.1,0.6c0.7,0.2,1.4,0.4,2.1,0.5c0.7,0.1,1.4,0.3,2.2,0.4l2.2,0.3c1.4,0.2,2.9,0.5,4.3,0.7
				c1.4,0.2,2.9,0.4,4.3,0.6c1.4,0.2,2.9,0.4,4.3,0.5c1.4,0.2,2.9,0.3,4.3,0.4l2.2,0.2c0.7,0.1,1.4,0.1,2.2,0.1l1.2,0.1
				c3.9,0.2,7.3-2.8,7.5-6.7c0.2-3.9-2.8-7.3-6.7-7.5C521.1,284.6,520.5,284.6,520,284.7z"/>
			<g>
				<g>
					<path class="st35" d="M461.1,254c-0.3,1.3-0.4,2.6-0.7,3.9c-0.2,1.2-0.4,2.1-0.6,3.2c-0.3,1.6-1.1,3.1-2.7,3.1
						c-2-0.1-2.1-1.9-3.1-3.4c-1.3-1.9-2.2-3.8-3.2-5.8c-0.1-0.2,2.1-2,3.1-2.5c0.7-0.3,3.4-0.1,3.4-0.1s0.1,0.7,0.4,1.2
						c0.1,0.3,0.3,0.6,0.5,0.9c0.3-0.3,0.6-0.6,0.9-1.1c0.2-0.4,0.4-0.9,0.8-1.2C461,251.8,461.3,253.2,461.1,254z"/>
				</g>
				<g>
					<path class="st35" d="M452.1,253.9c-0.9-1.3-1.8-2.7-2.7-4c-0.6-1-2.2-0.1-1.6,0.8c0.9,1.5,1.9,3,2.9,4.4
						C451.5,256.1,452.8,254.8,452.1,253.9L452.1,253.9z"/>
				</g>
				<g>
					<path class="st35" d="M453.9,254c-0.9-2.4-1.9-4.8-3.2-7c-0.6-1-2.1,0-1.5,1c1.2,2.1,2.2,4.3,3,6.6
						C452.6,255.7,454.3,255.1,453.9,254L453.9,254z"/>
				</g>
				<g>
					<path class="st35" d="M455.4,252.4c-1-2.3-1.1-5.1-2.4-7.4c-0.6-1-2.1-0.2-1.6,0.8c1.3,2.3,1.4,5,2.4,7.4
						C454.3,254.2,455.9,253.4,455.4,252.4L455.4,252.4z"/>
				</g>
				<g>
					<path class="st35" d="M457.4,252.8c-0.2-2.2-0.7-4.3-1.2-6.5c-0.3-1.1-2-0.7-1.7,0.4c0.5,2,1,4,1.1,6
						C455.7,253.9,457.5,253.9,457.4,252.8L457.4,252.8z"/>
				</g>
			</g>
		</g>
		<g>
			<g>
				<path class="st36" d="M533.8,238.9c-0.6,0.7-6.7,7.6-7.2,6.7c-0.4-0.7,1.8-2.9,2.2-3.4c1.1-1.3,3.8-2.4,5.1-3.5
					c0.8-0.7-0.8,0.7,0,0"/>
				<g>
					<path class="st36" d="M533.1,238.2c-1.8,2.2-3.8,4.4-6,6.1c-0.1,0.1-0.4,0.3-0.4,0.3c0-0.1,0.9,0.7,0.9,0.7
						c0.1,0,0.3-0.5,0.3-0.6c0.4-0.7,1-1.3,1.5-1.9c1.5-1.6,3.6-2.4,5.3-3.7c-0.3,0.1-0.6,0.2-1,0.3c0,0,0,0,0,0
						c-0.1-0.6-0.3-1.1-0.4-1.7c-0.1,0.1-0.3,0.3-0.5,0.4c0.6,0.2,1.1,0.5,1.7,0.7c0,0,0,0,0,0c-0.1,0.2-0.2,0.5-0.3,0.7
						c0.1-0.1,0.1-0.1,0.2-0.2c0.9-0.9-0.5-2.3-1.4-1.4c-0.3,0.3-0.5,0.5-0.5,0.9c0,0.9,1.1,1.2,1.7,0.7c0.2-0.1,0.3-0.3,0.5-0.4
						c0.5-0.5,0.3-1.5-0.4-1.7c-0.5-0.1-0.7,0.1-1.1,0.4c-0.7,0.5-1.4,0.9-2.1,1.4c-1.2,0.7-2.3,1.4-3.2,2.4
						c-0.7,0.8-3.9,4.2-1.4,4.9c1.5,0.4,3.4-2,4.3-2.8c1.3-1.3,2.6-2.7,3.8-4.1C535.3,238.6,533.9,237.2,533.1,238.2L533.1,238.2z"
						/>
				</g>
			</g>
			<g>
				<path class="st35" d="M538.4,288.8c0.9-3.9,2-7.8,3.1-11.7c0.9-3,1.5-6.5,3.3-9c2.2-3,4.5-5.9,7-8.7c1.1-1.2,2.2-2.4,3.3-3.6
					c1.8-1.8,3.7-3.6,5.1-5.7c2.7-4.2,3.4-9.6,2.4-14.4c-0.7-3.3-2.2-6.5-4.8-8.8c-2.5-2.2-6.2-3.4-9.4-2.4
					c-1.6,0.5-3.1,1.4-4.4,2.4c-3.6,2.8-6.6,6.4-9.5,9.9c-5.1,6.2-8.9,13.5-9.4,21.7c-0.1,1.7-0.3,4.3,0.6,5.9c0.6,1.1,2.8,1.6,4,2
					c1.7,0.7,3.3,2,3.2,4c-0.1,1.9-0.5,3.8-1,5.6c-1.2,4.9-3.4,9.5-6.5,13.5"/>
			</g>
			<circle class="st25" cx="531.6" cy="245.4" r="1.5"/>
			<g>
				<g>
					<path class="st30" d="M544,240.8c0.9,0.1,1.7,0.6,2.1,1.5c0.1,0.3,0.6,0.2,0.5-0.1c-0.4-1-1.3-1.7-2.4-1.9
						C543.8,240.3,543.7,240.7,544,240.8L544,240.8z"/>
				</g>
			</g>
			<g>
				<path class="st37" d="M547.5,250.3c0.1-2-1.8-2.5-3.4-2.1c-0.1,0-0.3,0.1-0.5,0c-0.1,0-0.2-0.1-0.3-0.2
					c-2.5-8.5-1.6-17.9-0.5-20.4c1.5-3.2,5.3-6.9,8.8-7.5c13-2.2,18.8,13.3,17.6,23.6c-0.6,4.9-2.4,9.6-4.4,14.1
					c-2,4.5-4.3,8.6-9.2,10.2c-1.9,0.6-4,0.9-6,1c-0.8,0-1.7,0-2.4-0.3c-1.2-0.6-1.8-2-2.1-3.3c-0.5-1.7-0.6-3.7-1.2-5.3
					c-0.6-1.4-1.3-2.8-2-4.2c-0.3-0.7-1-1.4,0-1.6c0.9-0.2,1.8,0,2.8-0.4C546.1,253.3,547.4,251.9,547.5,250.3z"/>
				<g>
					<path class="st37" d="M549,250c-0.2-1.4-0.6-2-1.9-2.5c-0.5-0.2-1.2,0-1.6-0.2c-0.4,0-0.8,0.1-1.2,0.2c0-0.5,0.1-0.9,0.1-1.4
						c-1.9-4.7-1.8-12.3-0.5-17.1c2.3-7.9,11.7-10.2,17.6-4.8c3.2,3,5,7.3,5.9,11.5c1.1,5.3,0.4,10.5-1.2,15.6
						c-2.3,6.9-5.9,17-14.8,16.9c-5-0.1-4.6-3.4-5.7-7.1c-0.3-1.1-2.9-5.7-2.7-6.1c-0.2,0.3,3.3-0.9,3.6-1.1
						c1.3-0.9,1.9-2.1,2.3-3.6c0.3-1.1-2.6-0.7-2.9,0.3c-0.9,3.6-3.5,2.2-5.6,3.7c-0.3,0.2-0.6,0.5-0.5,0.9c0.8,3.2,2.6,6.1,3.4,9.5
						c0.7,2.6,1.4,4.7,4.2,5.4c4.5,1.1,10.9-1.3,14.1-4.5c4.8-4.8,7.7-13.4,8.8-19.9c1-5.4,0.3-11.1-1.9-16.1
						c-3.8-8.5-13.6-13.8-22-7.7c-5.2,3.8-6.3,8.8-6.3,14.9c0,2.4-0.3,10.3,1.6,11.9c1,0.9,3.9,0.7,4.1,2.2
						C546.2,251.8,549.1,251.1,549,250z"/>
				</g>
			</g>
			<g>
				<path class="st37" d="M563.5,246.2c0.4,3.7,3.5,6.8,7.1,7.8s7.6-0.2,10.5-2.5c2.9-2.3,4.9-5.6,6.1-9.2c1.3-4.2,1.5-8.9-0.1-13.1
					s-4.9-7.7-9.2-9.1c-4.3-1.3-9.3-0.1-12.2,3.2c-1.6,1.9-2.5,4.3-3.2,6.6c-1.1,3.6-2,7.6-0.9,11.3"/>
			</g>
			<g>
				<g>
					<path class="st37" d="M526,244.4c3.1-4.3,6.2-8.6,9.3-12.9c0.8-1-1-2-1.7-1c-3.1,4.3-6.2,8.6-9.3,12.9
						C523.5,244.4,525.3,245.4,526,244.4L526,244.4z"/>
				</g>
			</g>
			<g>
				<g>
					<path class="st37" d="M529.1,238.5c4.5,3.4,9.1,6.7,13.7,10c1.1,0.7,2.1-1,1-1.7c-4.6-3.3-9.2-6.6-13.7-10
						C529.1,236,528.1,237.7,529.1,238.5L529.1,238.5z"/>
				</g>
			</g>
		</g>
		<g>
			<path class="st35" d="M591.8,470.5c5.7,3.1,11.6,5.9,17.6,8.2c2.6,1,5.1,2.3,7.8,3.1c2.7,0.9,5.6,1.8,7.7,3.8
				c0.2,0.2,0.4,0.4,0.5,0.7c0.1,0.4-0.1,0.7-0.3,1c-5.6,9.5-11.2,19-16.8,28.5c-0.1,0.2-0.2,0.4-0.4,0.5c-0.4,0.3-1.1,0-1.3-0.5
				s-0.2-1-0.2-1.6c0.3-7.1,2.6-11.8,1.5-18.8c-0.2-1.4-0.4-2.9-1.1-4.2c-1-1.9-6.1-4.9-7.9-5.8c-2.1-1-4.2-2-6.3-3
				c-4.2-1.9-8.6-3.5-13-4.9"/>
		</g>
		<g>
			<path class="st30" d="M606.7,491.3c0.7-1.6,6.4-9.1,6.4-11.1c1.4,0.2,4.2,0.3,5.5,0.8c1.9,0.8,8.1,3.5,6.4,6.3
				c-5.6,9.5-11.2,19-16.8,28.5c-0.7,1.1-2.6-0.2-3-1.1c-0.2-0.6-0.2-1.2-0.1-1.8c0.2-1.6,0.6-3.2,1-4.7c0.3-1,0.6-1.9,0.8-3
				c0.1-0.8,1-3.6,1-4.4C608.2,499.1,606.3,492.4,606.7,491.3z"/>
		</g>
		<g>
			<path class="st35" d="M540,494.9c0.3,7,1,13.9,2.2,20.8c0.5,3,0.7,5.9,1.4,8.9c0.7,3,1.4,6.1,0.7,9.2c-0.1,0.3-0.2,0.6-0.4,0.8
				c-0.3,0.3-0.7,0.3-1.1,0.3c-11.8,0.1-23.7,0.2-35.5,0.3c-0.2,0-0.5,0-0.7-0.1c-0.5-0.2-0.6-1-0.3-1.5c0.3-0.5,0.8-0.8,1.3-1.1
				c6.8-3.6,12.2-4.1,18.1-9c1.2-1,2.4-2,3.2-3.3c1.2-2,1.1-8.3,1-10.5c-0.2-2.5-0.4-4.9-0.7-7.4c-0.6-4.9-1.5-9.8-2.7-14.6"/>
		</g>
		<g>
			<path class="st30" d="M529.1,520.2c1.9-0.3,11.9,0.9,13.7-0.3c0.6,1.4,2.1,4,2.3,5.6c0.3,2.1,1.3,9.4-2.2,9.4
				c-11.8,0.1-23.7,0.2-35.5,0.3c-1.4,0-1.3-2.5-0.6-3.3c0.4-0.5,1-0.8,1.6-1.1c1.6-0.7,3.2-1.2,4.9-1.7c1.1-0.3,2.1-0.5,3.2-0.9
				c0.8-0.4,3.9-1.1,4.6-1.5C522.8,525.8,527.9,520.4,529.1,520.2z"/>
		</g>
		<g>
			<path class="st37" d="M535.6,392.7c7.5,18,14,36.3,19.5,55c0.2,0.8,0.5,1.7,1.1,2.4c0.5,0.6,1.2,1.1,1.9,1.5
				c2.8,1.8,5.7,3.6,8.7,5c4.9,2.4,10.1,3.9,15.2,5.9c9.8,4,19.7,8.6,28.1,15c-1,2.8-5.7,12.4-5.7,12.4s-1.6-0.3-3.5-1.1
				c-6.3-2.7-12.6-5.1-18.9-7.8c-12.3-5.2-24.6-10.6-36.8-16.2c-1.3-0.6-2.6-1.2-3.6-2.3c-0.7-0.8-1.2-1.7-1.7-2.6
				c-3.2-6.4-6.1-13-8.6-19.8"/>
			<g>
				<path class="st37" d="M535.1,392.8c6.2,15.1,11.9,30.4,16.7,46c1.8,5.7,2.1,10.9,7.3,14.2c6.1,3.8,12.5,6.3,19.2,8.8
					c7.5,2.8,14.8,6.1,21.7,10c1.7,1,8.8,4.1,9.2,6.3c0.3,1.5-2.5,5.6-3.2,7c-0.4,0.9-1.4,4.1-2.2,4.5c-0.5,0.2-5.8-2.4-7.3-3
					c-8.1-3.3-16.2-6.6-24.2-10.1c-8.5-3.7-17-7.4-25.4-11.3c-9-4.2-12.1-16.4-15.4-25.2c-0.2-0.6-1.2-0.3-1,0.3
					c2.6,6.8,5.2,15.3,9.4,21.3c1.7,2.4,3.9,3.3,6.4,4.5c4.3,2,8.7,4,13.1,5.9c7.6,3.4,15.2,6.7,22.9,9.9c6.8,2.9,14.3,7,21.6,8.5
					c0.2,0,0.5,0,0.6-0.2c2-4.1,4.2-8.2,5.8-12.5c0.1-0.2-0.1-0.4-0.2-0.6c-7.7-5.6-16.1-9.9-24.9-13.6c-8.7-3.7-18.9-5.9-26.4-11.9
					c-4.5-3.6-5.3-10.5-7-15.8c-1.5-4.8-3.1-9.6-4.8-14.3c-3.4-9.8-7.1-19.5-11.1-29C535.9,392,534.9,392.2,535.1,392.8L535.1,392.8
					z"/>
			</g>
		</g>
		<g>
			<path class="st24" d="M539.5,433.7c-0.1,6-0.9,12.9,0.5,18.8c1.8,7.9,1.9,16,2.3,24c0.4,8.8,1.9,28.9,2.8,37.7
				c-5.8,1.2-11.8,1.4-17.7,0.8c-0.2-9.4-3.1-30.2-4.3-39.5c-1.2-9.6-2.4-19.3-3.8-28.9c-1.1-7.7-2.3-15.4-3.8-23
				c-3.2-16.3-7.6-32.3-10.3-48.7c-2.7-16.4-3.6-33.3,0.1-49.4c8-0.2,16,0.5,23.8,2c4.3,8.5,8.7,17.2,11.1,26.5
				c1.1,4.1,1.9,8.4,1.3,12.6c-0.7,4.6-2.1,9.1-2.9,13.7c-1.7,9.1-1.3,18.4-0.4,27.5c0.5,4.3,1.5,8.7,1.8,12.9
				C540.3,425,539.6,429.5,539.5,433.7z"/>
			<g>
				<path class="st24" d="M539,433.7c-0.2,6.4-0.7,12.6,0.5,18.9c1.5,8,1.9,15.8,2.3,23.9c0.4,9.7,1.2,19.4,2,29
					c0.2,2,1,4.9,0.6,6.8c-0.5,2.7-5.6,2.3-8.1,2.4c-2.6,0.1-7.5,1-8.4-1.7c-0.7-2.1-0.4-5.3-0.6-7.6c-1-10-2.4-20-3.7-30
					c-1.8-14.2-3.5-28.4-5.9-42.5c-2.5-14.8-6.2-29.4-9.3-44.1c-3.2-15.2-5.7-30.8-4.9-46.4c0.2-3.8,0.6-7.5,1.2-11.2
					c0.3-2.1,0.2-4.3,2.5-5.3c1.2-0.5,4.2,0,5.5,0.1c4.1,0.2,8.7,0.2,12.7,1.2c4.6,1.2,5.4,4.4,7.3,8.4c3.8,7.9,7.6,16.5,8.4,25.4
					c0.7,7.7-2.6,15.2-3.6,22.8c-1,7.9-0.7,16,0.2,23.9c0.5,4.3,1.5,8.6,1.8,12.9C539.8,425.1,539.2,429.4,539,433.7
					c0,0.6,1,0.6,1,0c0.2-5.6,0.8-11.1,0.1-16.7c-0.9-6.7-2-13.3-2.1-20.2c-0.2-6.4,0.3-12.7,1.7-19c1.1-5.2,2.9-10.4,2.5-15.8
					c-0.6-10.5-5.5-20.7-10.2-30c-2.7-5.3-2.3-5.1-8.3-5.9c-6.1-0.8-12.2-1.2-18.3-1.1c-0.2,0-0.4,0.2-0.5,0.4
					c-7.6,34.6,4.6,68.5,10.9,102.2c3.2,17.2,5.1,34.6,7.4,51.9c1.6,11.8,3.5,23.6,3.8,35.5c0,0.3,0.2,0.5,0.5,0.5
					c6,0.6,11.9,0.3,17.8-0.8c0.2,0,0.4-0.3,0.4-0.5c-1.1-11.4-2-22.9-2.6-34.3c-0.4-7.3-0.4-14.7-1.4-21.9
					c-0.6-4.1-1.6-8.1-1.8-12.2c-0.1-4,0.2-8.1,0.3-12.1C540,433.1,539,433.1,539,433.7z"/>
			</g>
		</g>
		<g>
			<path class="st19" d="M512.8,294.8c0.3-0.8,0.7-1.6,1.2-2.4c1.9-2.8,4.8-4.9,7.4-7.1c1.4-1.2,2.9-2.4,4.2-3.6
				c1.4-1.3,3.4-4.6,5.8-3.7c0.4,0.2,0.7,0.5,1.1,0.8c2.3,1.9,5.8,2.3,8.5,1c4.2,6.9,6.5,15.1,5.2,23.1c-1.2,7.2-4.9,13.7-7.7,20.4
				c-1,2.4-2,5-4,6.8c-2.5,2.2-4.9,1.5-7.8,0.6c-2.4-0.7-4.8-1.3-7.2-2c-2.2-0.6-4.9-1.9-7.1-2c-1.8-0.1-3.1,0.4-4.7-1
				c-1.2-1.1-1.9-2.6-2.3-4.2c-0.6-2.6-0.4-5.4,0.6-7.9c1.5-3.8,4.6-6.9,5.4-10.9C511.9,299.8,511.9,297.2,512.8,294.8z"/>
			<g>
				<path class="st19" d="M513.2,295c2.2-5.1,7.3-8.2,11.3-11.8c2.3-2.1,4-4.7,7.7-4.1c1.5,0.3,2.6,1.6,4.4,1.7
					c2.8,0.3,3.8-0.7,5.6,2.1c1.8,2.7,2.7,6.5,3.3,9.7c1.4,7.4-0.4,14.3-3.4,21.1c-2,4.5-5.5,16.9-11.5,17.2
					c-2.9,0.1-6.5-1.6-9.3-2.4c-2.3-0.6-4.5-1.5-6.8-2.1c-0.7-0.2-1.5-0.2-2.3-0.4c-2.9-0.8-5.9-3.4-6.6-6.4
					c-1-3.8,1.4-7.6,3.2-10.7c2.8-4.6,2.8-9,4.3-14.1c0.2-0.6-0.8-0.9-1-0.3c-0.8,2.8-0.8,5.7-1.6,8.5c-0.9,3.2-3.1,5.7-4.5,8.6
					c-1.7,3.4-2.3,7.8-0.7,11.3c2,4.5,4.8,3.4,8.9,4.3c5.2,1.2,10.4,4,15.7,4.4c3.8,0.3,5.9-2.4,7.6-5.5c2.6-4.8,4.8-10.3,6.8-15.4
					c4.2-10.9,2.9-21.5-2.9-31.5c-0.1-0.2-0.4-0.3-0.6-0.2c-1.7,0.8-3.6,1-5.6,0.4c-1.3-0.5-2.5-1.2-3.6-2.1
					c-0.4-0.1-0.8-0.2-1.3-0.2c-1.8,0-3,1.8-4.2,2.9c-4.6,4.5-11.2,8.2-13.9,14.3C512.1,295.1,513,295.6,513.2,295z"/>
			</g>
		</g>
		<g>
			<path class="st19" d="M526.7,284.1c-1.8-1.8-4.6-1.9-7.1-1.9c-7.8,0.1-15.6,0.4-23.3,0.9c-2.9,0.2-6,0.4-8.5-1.1
				c-1.5-0.9-2.6-2.2-3.6-3.5c-2-2.4-3.9-4.8-5.9-7.2c-1.9-2.3-3.9-4.7-6.4-6.3s-5.8-2.4-8.6-1.3c0.9,0.5,0.9,1.9,0.3,2.7
				c-0.7,0.9-2.2,1.8-3.3,2.1c1.9,5.3,5.9,10.2,9.5,14.5c5.1,6,11.1,11.7,18.6,14.1c7.5,2.4,15.7,1.4,23.3,3.5c2,0.6,4,1.3,6.1,1.3
				c2.1,0,4.3-1.1,5-3"/>
			<g>
				<path class="st19" d="M527.1,283.8c-3.7-3-8.9-2.1-13.3-1.9c-3.9,0.1-7.8,0.3-11.7,0.5c-3.3,0.2-7,0.9-10.2,0.4
					c-11.7-1.8-14.8-23.5-28.8-19.4c-0.4,0.1-0.4,0.5-0.2,0.8c-0.9,1.3-1.9,2.7-2.8,4c-0.2,0.1-0.5,0.3-0.3,0.6
					c4.5,11.3,15.3,24,26.9,28.5c7.9,3.1,16.6,1.9,24.7,4c4.2,1.1,9.1,2.8,11.6-1.9c0.3-0.6-0.6-1.1-0.9-0.5c-2.8,5.3-10,1.4-14,0.7
					c-2.7-0.5-5.5-0.7-8.3-0.9c-7.8-0.6-14.6-2.2-20.9-7c-5.5-4.2-10.3-9.9-14.3-15.6c-1.1-1.6-4.2-5.5-3.1-7.4
					c0.5-0.9,2.1-1.8,2.7-2.9c1.6-2.8-1.8,0.2,0.8-1.7c3.1-2.3,9,3.4,10.8,5.4c3.7,4.1,6.8,10.3,11.6,13.1c4.2,2.4,10.1,1,14.6,0.8
					c3.9-0.2,7.8-0.4,11.7-0.5c3.9-0.1,9.3-1,12.6,1.6C526.9,284.9,527.6,284.2,527.1,283.8L527.1,283.8z"/>
			</g>
		</g>
	</g>
</g>
<g>
	<g>
		<path class="st38" d="M780.7,314.8c-0.4,0.8-4.6,8.9-5.4,8.2c-0.5-0.5,0.5-2.2,0.7-2.6c0.6-1.1,1.7-1.9,2.3-3
			c0.6-1.1,1.6-1.8,2.3-2.8c0.6-0.9-0.6,0.9,0,0"/>
		<g>
			<path class="st38" d="M779.8,314.3c-1.1,2.4-2.4,4.8-3.9,6.9c-0.4,0.6-1.2,0.9-0.3,1.1c0.8,0.2,0.6-0.2,1-1
				c0.2-0.4,0.4-0.8,0.7-1.1c1.3-1.8,2.8-3.4,4.2-5.1c-0.5-0.4-1-0.8-1.6-1.2c0,0.1-0.3,0.5-0.2,0.3c0.5,0.4,1,0.8,1.6,1.2
				c0.1-0.1,0.1-0.2,0.2-0.3c0.7-1.1-1-2.1-1.7-1c-0.1,0.1-0.1,0.2-0.2,0.3c-0.5,1,0.8,2.1,1.6,1.2c0.2-0.2,0.4-0.5,0.5-0.7
				c0.5-1-0.8-2.1-1.6-1.2c-0.9,1.1-1.9,2.1-2.7,3.3c-0.8,1.2-1.9,2.1-2.6,3.4c-0.4,0.8-1,2-0.6,3c0.3,0.7,1,0.9,1.7,0.6
				c1.3-0.6,2.3-2.7,3-3.9c0.9-1.5,1.8-3.1,2.6-4.7C782.1,314.2,780.4,313.2,779.8,314.3L779.8,314.3z"/>
		</g>
	</g>
	<g>
		<defs>
			<path id="SVGID_5_" d="M796.6,365.4c0-4,0.6-11.3,0.7-15.3c0.1-3.1-0.1-6.7,1.1-9.6c1.4-3.4,2.9-6.8,4.7-10.1
				c0.8-1.4,1.6-2.9,2.4-4.3c1.3-2.2,2.7-4.4,3.5-6.8c1.7-4.7,1-10.1-1.2-14.6c-1.5-3-3.7-5.8-6.7-7.4c-3-1.6-6.8-1.8-9.7-0.1
				c-1.5,0.8-2.6,2.1-3.7,3.4c-2.9,3.6-4.9,7.8-6.9,11.9c-3.5,7.3-5.4,15.3-3.9,23.3c0.3,1.7,0.7,4.3,2,5.6c0.9,0.9,3.1,0.8,4.4,1
				c1.8,0.3,3.7,1.1,4.1,3.1c0.4,1.8,0.4,3.8,0.4,5.7c0,5-1,10.1-3.1,14.7"/>
		</defs>
		<use xlink:href="#SVGID_5_"  style="overflow:visible;fill:#F9A7A2;"/>
		<clipPath id="SVGID_6_">
			<use xlink:href="#SVGID_5_"  style="overflow:visible;"/>
		</clipPath>
		<g class="st39">
			<path class="st24" d="M775.8,330.2c1,0.4,2.1,0.5,3.1,0.4c0.6-0.1,1.3-0.2,1.7,0.3c0.2,0.3,0.2,0.8,0,1.1
				c-0.2,0.3-0.6,0.5-0.9,0.7c-0.3,0.2-0.7,0.3-1.1,0.4c-1.1,0.1-2.3-1-2.2-2.1"/>
			<g>
				<path class="st24" d="M775.5,331.1c0.6,0.2,1.3,0.4,2,0.4c0.7,0.1,1.3-0.1,1.9-0.1c0.2,0,0.5-0.1,0,0.2
					c-0.3,0.1-0.5,0.3-0.8,0.4c-0.7,0.1-1.2-0.4-1.2-1.1c0-1.3-2-1.3-2,0c-0.1,3.2,4,4.1,5.8,1.7c0.8-1,0.5-2.6-0.8-3
					c-0.6-0.2-1.2,0-1.9,0c-0.9,0.1-1.7-0.1-2.5-0.4C774.9,328.8,774.3,330.7,775.5,331.1L775.5,331.1z"/>
			</g>
		</g>
	</g>
	<circle class="st25" cx="780.2" cy="321.7" r="1.5"/>
	<g class="st40">
		<g>
			<path class="st30" d="M792.9,328.5c1.5-0.7,2.9-0.9,4-2.2c0.9-1.1,1.6-2.5,1.3-4c-0.5-2.7-3.9-2.4-5.8-1.5
				c-1.8,0.9-0.2,2,1.2,1.3c1.3-0.7,1.9,0.6,1.7,1.9c-0.1,0.8-0.6,1.7-1.3,2.3c-0.6,0.5-1.6,0.6-2.3,0.9c-0.4,0.2-1.2,0.7-0.8,1.2
				C791.4,328.9,792.5,328.7,792.9,328.5L792.9,328.5z"/>
		</g>
	</g>
</g>
<g>
	<g>
		<path class="st24" d="M807.4,381.7c1,6.9-2,14.1-4,20.7c-2.3,7.4-5,14.6-7.8,21.8c-5.4,14.3-10.8,28.9-11.6,44.2
			c-16.9,6-35.6,7.2-53.1,3.4c2-7.4,4.8-14.6,7.6-21.8c6.6-16.9,13.3-33.8,19.9-50.7c2.9-7.4,20.8-32.1,27.9-35.8
			c1.3,1.9,9.3,2,10.5,0.1C801.5,369,806.4,374.7,807.4,381.7z"/>
		<g>
			<path class="st24" d="M806.9,381.7c1.1,11-4.7,23.2-8.4,33.3c-4,10.8-8.4,21.4-11.4,32.5c-1.2,4.5-2.2,9-2.9,13.6
				c-0.4,3,0.1,6.1-2.9,7.7c-2.4,1.3-6.1,1.8-8.7,2.4c-11.4,2.5-23.1,3-34.6,1.4c-3.7-0.5-6.4-0.1-5.6-4.3c0.4-2.4,1.6-5,2.4-7.3
				c2.2-6.1,4.6-12,7-18c4.3-10.9,8.5-21.7,12.8-32.6c2.8-7.2,5.4-13.9,9.7-20.3c4.1-6.3,8.7-12.4,13.6-18c2-2.3,4.1-4.9,6.7-6.7
				c2.2-1.5,2.7-0.2,5.4,0.1c2,0.2,5.9-1.2,7.2-0.6c2.2,0.9,4.8,5.7,5.9,7.5c1.9,3,3.2,6.1,3.9,9.6c0.1,0.6,1.1,0.4,1-0.3
				c-1.4-7.3-5.9-12.9-10.7-18.3c-0.2-0.2-0.5-0.2-0.7,0c-1.9,1.9-8,1.8-9.8-0.1c-0.2-0.2-0.4-0.2-0.6-0.1
				c-5.7,3.2-10.2,9.5-14.1,14.6c-4.7,6.1-9.6,12.5-13,19.4c-5.4,10.7-9,22.6-13.4,33.8c-5.3,13.5-11.2,26.8-15.1,40.8
				c-0.1,0.2,0.1,0.6,0.3,0.6c17.9,3.7,36.2,2.5,53.4-3.4c0.2-0.1,0.4-0.2,0.4-0.5c1-15.7,6.4-30.4,11.9-45
				c2.7-7.2,5.4-14.4,7.7-21.8c2.1-6.6,4.5-13,3.8-20C807.9,381.1,806.9,381.1,806.9,381.7z"/>
		</g>
	</g>
</g>
<g>
	<path class="st26" d="M780.3,375.9c-10.7,12.5-21.5,25.1-32.2,37.6c-2.6,3-5.2,6-8.2,8.6c-1.9,1.6-4,3-6.1,4.4
		c-4,2.7-7.9,5.4-11.9,8c-3.8,2.5-11.2,4.7-15.8,5.4c-0.7,0.1-1.5,0.3-1.6,0.9c-0.1,0.4,0.1,0.8,0.4,1.1c0.3,0.3,4.6,0.5,4.8,0.8
		c0.1,0.1,0.2,0.3,0.1,0.5c0,0.1-0.1,0.1-0.2,0.2c-1.2,0.6-10.7,0.4-12.5,0.4c0,0,3.9,2.3,11,3.3c2,0.3,4,0.5,6,0.1
		c1.8-0.4,3.4-1.2,5-2.1c11-6,22.1-12.1,33.1-18.1c1-0.6,2.1-1.1,3-1.9c1.3-1,2.4-2.3,3.4-3.5c8.4-9.7,17.7-18.5,27.9-26.4"/>
</g>
<g>
	<path class="st24" d="M770.8,395.9c3.3,2.8,6.2,6,8.7,9.5c4.7-3.9,9.5-8.1,12.5-13.4c2.3-4.2,6.4-9.2,6.2-14
		c-0.1-1.5-1.2-4.9-2.1-6.2c-2-3-7.5-2.2-10.8-0.8s-5.6,4-8,6.7c-2.3,2.6-4.7,5.7-6.9,8.4c-1.1,1.3-4.8,5.8-4.8,5.8L770.8,395.9z"/>
	<g>
		<path class="st24" d="M770.5,396.2c3.2,2.9,6.1,6,8.7,9.4c0.2,0.3,0.5,0.3,0.8,0.1c7.2-6,12.7-12.6,16.9-21
			c2.1-4.2,3-11.3-1.6-14.4c-4.6-3.1-11.7,0.5-15.2,3.7c-5.5,5.2-10,11.6-14.8,17.5c-0.2,0.2-0.2,0.5,0,0.7
			C767,393.6,768.8,394.9,770.5,396.2c0.5,0.4,1.2-0.3,0.7-0.7c-1.2-0.9-3.9-2.3-4.6-3.6c-0.3-0.6-0.6,0.6,0.5-0.9
			c0.8-1.2,1.8-2.2,2.7-3.3c5.1-6.2,10.6-15.7,19.1-17.2c8.1-1.4,10.2,6.9,7.5,13c-1.7,3.8-4.1,7.7-6.5,11
			c-1.6,2.3-7.6,10.3-10.8,9.3c-0.8-0.2-2.6-3.2-3.2-3.8c-1.5-1.6-3-3.1-4.6-4.5C770.7,395.1,770,395.8,770.5,396.2z"/>
	</g>
</g>
<g>
	<g>
		<path class="st20" d="M793.8,620c1-0.4,2-0.6,3.1-0.5c1.3,0.1,1.3-1.9,0-2c-1.2-0.1-2.5,0.1-3.7,0.6
			C792.1,618.5,792.6,620.4,793.8,620L793.8,620z"/>
	</g>
</g>
<g>
	<g>
		<path class="st20" d="M795.2,616.4c1.2-0.3,2.3-0.4,3.6-0.4c1.3,0.1,1.3-1.9,0-2c-1.4-0.1-2.8,0.1-4.1,0.4
			C793.4,614.8,793.9,616.7,795.2,616.4L795.2,616.4z"/>
	</g>
</g>
<g>
	<g>
		<path class="st20" d="M795.6,613.6c1.2-0.3,2.4-0.4,3.6-0.2c1.3,0.2,1.8-1.7,0.5-1.9c-1.6-0.3-3.1-0.2-4.6,0.2
			C793.8,612,794.4,614,795.6,613.6L795.6,613.6z"/>
	</g>
</g>
<g>
	<path class="st28" d="M331.5,498.1c0.8-4.3,2.4-8.4,2.3-12.7c-0.1-4.6-1.5-9.2-4-13c-0.8-1.3-1.8-2.5-2.3-4
		c-0.9-3.2,2.1-6.2,4.9-7.1c2.7-0.9,5.6-1.3,8.4-1.3c2.2,0,4.6,0.5,5.9,2.2c1,1.3,1.1,3.1,0.8,4.8c-0.4,1.6-1.1,3.1-1.8,4.7
		c-3.4,8.1-1.3,17.3-1.2,26.1"/>
	<g>
		<path class="st28" d="M332.5,498.3c1.2-5.9,3-11.4,1.8-17.5c-0.5-2.6-1.4-5.2-2.7-7.5c-1.4-2.6-4.7-5.7-1.8-9.2
			c1.4-1.7,4.2-2.3,6.3-2.7c1.8-0.3,5.6-1,7.2-0.1c1.1,1.8,2.2,3.6,3.3,5.5c-0.2,1-0.6,2-1.1,3c-1.1,2.8-2,5.4-2.4,8.4
			c-0.8,6.5,0.3,13.1,0.5,19.7c0,1.3,2,1.3,2,0c-0.1-5-0.8-10-0.7-15.1c0-2.8,0.3-5.6,1.1-8.3c0.7-2.4,2.1-4.7,2.6-7.1
			c1.2-6.3-3.9-8.5-9.3-8.2c-4.9,0.2-13.3,2.1-12.7,8.6c0.4,4,4.2,7.3,5.3,11.2c2,6.6,0.1,12.5-1.2,18.9
			C330.3,499.1,332.2,499.6,332.5,498.3L332.5,498.3z"/>
	</g>
</g>
<g>
	<path class="st29" d="M329.9,474.5c-0.3-0.8-5.6-6.7-6.4-8.3c-0.3-0.6-0.6-1.2-1.1-1.7c-0.6-0.7-1.4-1.1-2.1-1.7
		c-2.6-2.1-3.6-5.1-4.5-8.2c-1-3.5-1.8-7.1-1.9-10.7c-0.1-2.7,0.2-5.6,1.9-7.6c1.7-2.1,4.5-2.9,7.2-3.1c1.3-2.8,4-4.5,6.8-5.9
		c3.4-1.7,7-3,10.8-2.9c2.1,0.1,4.1,0.6,6.1,1.5c7.1,3,12.3,10.1,13.4,17.7c1.2,8.5-0.9,15.2-7.3,21c-3.4,3.1-4.6,6-6.3,10.2
		C345.4,477.4,331.1,477.4,329.9,474.5z"/>
	<g>
		<path class="st29" d="M330.8,474c-1.8-3-4.5-5.4-6.4-8.3c-1.3-1.9-2.8-2.8-4.4-4.5c-2.4-2.6-3.3-7-4.1-10.3c-0.8-3.7-2-9.4,0-13
			c2.1-3.7,5-2.3,7.8-4c1.3-0.8,2.4-3.2,3.9-4.2c1.3-0.9,2.7-1.6,4.1-2.2c4.8-2.1,9.5-2.7,14.4-0.7c14.6,6.1,17.2,25.7,6.5,36.5
			c-1.7,1.7-3.3,3.3-4.5,5.5c-1.2,2.1-1.8,5.2-4.1,6.3C341.7,476.3,332.4,476.5,330.8,474c-0.7-1.1-2.4-0.1-1.7,1
			c2.7,4.1,14.9,3.9,18,0.6c1.7-1.8,2.3-5.4,3.8-7.5c2-2.8,4.8-4.8,6.7-7.6c3.4-5,4.3-11.1,3.4-17.1c-1.7-11.4-12.6-22.2-24.7-19.6
			c-3.1,0.7-6.3,2-9.1,3.7c-2.2,1.3-3.6,3.8-5.9,4.8c-2.3,1.1-4.5,1.1-6.3,3.2c-1.3,1.6-1.9,3.6-2.1,5.6c-0.6,6.3,1,15.9,5.2,20.9
			c3.6,4.2,8,8.2,10.9,13C329.7,476.1,331.5,475.1,330.8,474z"/>
	</g>
</g>
<g>
	<g>
		<path class="st28" d="M239.4,483.7c0,1.5,0.2,2.9,0.3,4.4c0.1,1.4,0.1,2.3,0.2,3.7c0.1,1.8-0.3,3.7-2.1,4
			c-2.1,0.4-2.8-1.5-4.3-2.8c-1.9-1.7-3.4-3.5-5.1-5.4c-0.1-0.1,1.7-2.8,2.7-3.5c0.7-0.5,3.7-1,3.7-1s0.3,0.8,0.7,1.2
			c0.2,0.3,0.5,0.5,0.8,0.8c0.3-0.4,0.5-0.9,0.7-1.4c0.1-0.5,0.2-1.1,0.6-1.5C238.6,481.4,239.3,482.9,239.4,483.7z"/>
	</g>
	<g>
		<path class="st28" d="M229.6,486.1c-1.4-1.2-2.7-2.4-3.9-3.6c-0.9-0.9-2.4,0.4-1.5,1.3c1.4,1.4,2.8,2.7,4.3,4
			C229.5,488.6,230.6,486.9,229.6,486.1L229.6,486.1z"/>
	</g>
	<g>
		<path class="st28" d="M231.6,485.7c-1.6-2.4-3.4-4.6-5.3-6.7c-0.9-1-2.3,0.5-1.4,1.5c1.8,2,3.5,4.1,5,6.3
			C230.6,487.9,232.3,486.8,231.6,485.7L231.6,485.7z"/>
	</g>
	<g>
		<path class="st28" d="M232.8,483.5c-1.7-2.2-2.6-5.2-4.6-7.3c-0.9-0.9-2.3,0.4-1.5,1.3c2,2.1,2.8,5.1,4.6,7.3
			C232.1,485.8,233.6,484.5,232.8,483.5L232.8,483.5z"/>
	</g>
	<g>
		<path class="st28" d="M235,483.5c-0.8-2.3-1.9-4.5-3-6.7c-0.6-1.1-2.3-0.2-1.8,0.9c1,2,2.1,4.1,2.8,6.2
			C233.5,485.1,235.4,484.7,235,483.5L235,483.5z"/>
	</g>
</g>
<g>
	<path class="st28" d="M238.7,491.8c0.7,0.6,1.3,1.1,2,1.7c0.6,0.6,1.3,1.1,1.9,1.7l1.8,1.8l1.8,1.8c1.2,1.2,2.3,2.5,3.4,3.7
		c1.2,1.2,2.2,2.5,3.3,3.8c1.1,1.3,2.1,2.6,3.2,3.9c1,1.3,2.1,2.6,3.1,3.9c1,1.4,1.8,2.8,2.5,4.3c0.2,0.4,0.3,0.8,0.5,1.2
		c0.1,0.4,0.3,0.8,0.4,1.2c0.2,0.8,0.5,1.7,0.5,2.6l-6.1-1.9c2-1.3,4.1-2.5,6.1-3.8l6.2-3.6c2.1-1.2,4.2-2.3,6.3-3.4
		c2.1-1.1,4.2-2.3,6.3-3.3l6.4-3.2l3.2-1.6c1.1-0.5,2.1-1,3.2-1.5l6.5-3c2.2-0.9,4.3-1.9,6.5-2.7c5.4-2.1,11.5,0.6,13.6,6
		c2,5.3-0.5,11.3-5.8,13.5c-2.2,0.9-4.4,1.7-6.6,2.5l-6.7,2.3c-1.1,0.4-2.2,0.8-3.4,1.1l-3.4,1l-6.8,2.1c-2.3,0.7-4.6,1.3-6.9,1.9
		c-2.3,0.6-4.6,1.3-6.9,1.9l-7,1.7c-2.4,0.5-4.7,1-7.1,1.5l-4.5,0.8l-1.6-2.7c-0.9-1.4-1.7-2.9-2.5-4.3l-2.5-4.3
		c-0.8-1.4-1.6-2.9-2.4-4.4l-2.4-4.4l-4.8-8.8c-1.6-2.9-3.2-5.9-4.8-8.8c-0.6-1-0.2-2.3,0.8-2.8c0.8-0.4,1.7-0.3,2.4,0.3
		L238.7,491.8z"/>
</g>
<g>
	<g>
		<g>
			<path class="st28" d="M428.4,485.7c0,1.5-0.2,2.9-0.3,4.4c-0.1,1.4-0.1,2.3-0.2,3.7c-0.1,1.8,0.3,3.7,2.1,4
				c2.1,0.4,2.8-1.5,4.3-2.8c1.9-1.7,3.4-3.5,5.1-5.4c0.1-0.1-1.7-2.8-2.7-3.5c-0.7-0.5-3.7-1-3.7-1s-0.3,0.8-0.7,1.2
				c-0.2,0.3-0.5,0.5-0.8,0.8c-0.3-0.4-0.5-0.9-0.7-1.4c-0.1-0.5-0.2-1.1-0.6-1.5C429.2,483.4,428.5,484.9,428.4,485.7z"/>
		</g>
		<g>
			<path class="st28" d="M438.2,488.1c1.4-1.2,2.7-2.4,3.9-3.6c0.9-0.9,2.4,0.4,1.5,1.3c-1.4,1.4-2.8,2.7-4.3,4
				C438.3,490.6,437.2,488.9,438.2,488.1L438.2,488.1z"/>
		</g>
		<g>
			<path class="st28" d="M436.3,487.7c1.6-2.4,3.4-4.6,5.3-6.7c0.9-1,2.3,0.5,1.4,1.5c-1.8,2-3.5,4.1-5,6.3
				C437.3,489.9,435.5,488.8,436.3,487.7L436.3,487.7z"/>
		</g>
		<g>
			<path class="st28" d="M435,485.5c1.7-2.2,2.6-5.2,4.6-7.3c0.9-0.9,2.3,0.4,1.5,1.3c-2,2.1-2.8,5.1-4.6,7.3
				C435.7,487.8,434.3,486.5,435,485.5L435,485.5z"/>
		</g>
		<g>
			<path class="st28" d="M432.8,485.5c0.8-2.3,1.9-4.5,3-6.7c0.6-1.1,2.3-0.2,1.8,0.9c-1,2-2.1,4.1-2.8,6.2
				C434.4,487.1,432.4,486.7,432.8,485.5L432.8,485.5z"/>
		</g>
	</g>
	<path class="st28" d="M429.1,493.8c-0.7,0.6-1.3,1.1-2,1.7c-0.6,0.6-1.3,1.1-1.9,1.7l-1.8,1.8l-1.8,1.8c-1.2,1.2-2.3,2.5-3.4,3.7
		c-1.2,1.2-2.2,2.5-3.3,3.8c-1.1,1.3-2.1,2.6-3.2,3.9c-1,1.3-2.1,2.6-3.1,3.9c-1,1.4-1.8,2.8-2.5,4.3c-0.2,0.4-0.3,0.8-0.5,1.2
		c-0.1,0.4-0.3,0.8-0.4,1.2c-0.2,0.8-0.5,1.7-0.5,2.6l6.1-1.9c-2-1.3-4.1-2.5-6.1-3.8l-6.2-3.6c-2.1-1.2-4.2-2.3-6.3-3.4
		c-2.1-1.1-4.2-2.3-6.3-3.3l-6.4-3.2l-3.2-1.6c-1.1-0.5-2.1-1-3.2-1.5l-6.5-3c-2.2-0.9-4.3-1.9-6.5-2.7c-5.4-2.1-11.5,0.6-13.6,6
		c-2,5.3,0.5,11.3,5.8,13.5c2.2,0.9,4.4,1.7,6.6,2.5l6.7,2.3c1.1,0.4,2.2,0.8,3.4,1.1l3.4,1l6.8,2.1c2.3,0.7,4.6,1.3,6.9,1.9
		c2.3,0.6,4.6,1.3,6.9,1.9l7,1.7c2.4,0.5,4.7,1,7.1,1.5l4.5,0.8l1.6-2.7c0.9-1.4,1.7-2.9,2.5-4.3l2.5-4.3c0.8-1.4,1.6-2.9,2.4-4.4
		l2.4-4.4l4.8-8.8c1.6-2.9,3.2-5.9,4.8-8.8c0.6-1,0.2-2.3-0.8-2.8c-0.8-0.4-1.7-0.3-2.4,0.3L429.1,493.8z"/>
</g>
<g>
	<g>
		<path class="st20" d="M329.8,490.3c0.5-1.3,1.1-2.7,1.6-4c0.1-0.2,0.1-0.3,0.3-0.5c0.1-0.1,0.3-0.2,0.4-0.2
			c4.2-1.3,8.8-1.5,13.1-0.5c0.4,0.1,0.7,0.2,1,0.4c0.5,0.4,0.7,1,0.9,1.7c0.4,1.5,0.9,3.1,1.3,4.6"/>
	</g>
	<g>
		<path class="st24" d="M312.8,620.7c-2.7,1-5.5,2-8.2,3.1c-5.5,2-11.2,4.2-15.7,7.9c-4.5,3.8-7.8,0.6-12.6-1.7
			c-4.9-2.3-9.7-4.9-14.4-7.6c-1.4-0.8-2.9-1.7-3.9-2.9s-1.6-3-1.1-4.6c0.5-1.5,2-2.4,3.5-2.8c5.9-1.6,11.4,3.6,17.4,4.3
			c5.8,0.7,11.5-2.8,17.2-2"/>
		<g>
			<path class="st24" d="M312.7,620.2c-6.7,2.5-13.9,4.6-20.1,8.3c-1.4,0.8-3.8,3.2-5.2,3.7c-3,1-5.4,0.1-8-1.2
				c-3.6-1.8-7.2-3.6-10.8-5.5c-1.6-0.8-3.2-1.7-4.8-2.6c-1-0.6-2-1.1-3-1.7c-2.9-6.4-2.1-9.3,2.7-8.8c4.1,0.2,7.6,2.7,11.4,3.9
				c7,2.1,13.3-1.9,20.3-1.3c0.6,0.1,0.6-0.9,0-1c-5.4-0.5-10.3,2.1-15.6,2.1c-5.5-0.1-10-3.9-15.4-4.5c-6.3-0.7-10.7,4.9-5.3,9.6
				c3.8,3.4,9.5,5.6,14,7.8c3.3,1.6,7.3,4.7,11.1,5c4.3,0.4,7.7-3.8,11.2-5.7c5.6-2.9,11.8-4.8,17.8-7
				C313.5,620.9,313.3,620,312.7,620.2L312.7,620.2z"/>
		</g>
	</g>
	<g>
		<path class="st24" d="M364.8,620.7c2.7,1,5.5,2,8.2,3.1c5.5,2,11.2,4.2,15.7,7.9c4.5,3.8,7.8,0.6,12.6-1.7
			c4.9-2.3,9.7-4.9,14.4-7.6c1.4-0.8,2.9-1.7,3.9-2.9c1-1.3,1.6-3,1.1-4.6c-0.5-1.5-2-2.4-3.5-2.8c-5.9-1.6-11.4,3.6-17.4,4.3
			c-5.8,0.7-11.5-2.8-17.2-2"/>
		<g>
			<path class="st24" d="M364.7,621.2c5.7,2.1,11.6,4,17.1,6.7c3.6,1.8,7.2,6.1,11.4,6.1c3.8-0.1,7.6-3.1,10.9-4.7
				c4.8-2.4,10.8-4.7,14.8-8.2c4.9-4.4,1.6-9.9-4.6-9.7c-5.2,0.2-9.5,4-14.6,4.5c-5.8,0.6-11.2-2.4-17.1-1.9c-0.6,0.1-0.6,1.1,0,1
				c7-0.6,13.4,3.4,20.3,1.3c3.8-1.1,7.3-3.7,11.4-3.9c4.7-0.5,5.6,2.5,2.7,8.8c-0.7,0.4-1.5,0.9-2.2,1.3c-1.8,1-3.7,2.1-5.5,3
				c-3.6,1.9-7.2,3.7-10.8,5.5c-2.7,1.3-4.7,2.7-8,1.2c-1.7-0.8-3.6-2.7-5.2-3.7c-6.2-3.7-13.4-5.8-20.1-8.3
				C364.3,620,364.1,620.9,364.7,621.2L364.7,621.2z"/>
		</g>
	</g>
	<g>
		<path class="st19" d="M360.2,594.8c9.8-4.7,57.4-19.5,60.6-15.9c2.6,2.9,2.1,12-0.3,14.9c-2.2,2.7-6.8,4.2-9.7,6.3
			c-9.3,6.9-17.9,11.9-25.4,20.7c-2.3,2.7-4.6,5.6-7.7,7.4c-2.8,1.6-6,2.3-9.1,2.8c-8.1,1.2-16.1,1.9-24.3,2.9h-13.4
			c-8.1-1-16.2-1.7-24.3-2.9c-3.1-0.5-6.4-1.1-9.1-2.7c-3.1-1.8-5.4-4.7-7.7-7.4c-7.5-8.9-16.1-13.8-25.4-20.7
			c-2.8-2.1-7.4-3.7-9.7-6.4c-2.4-2.9-2.9-12-0.3-14.9c3.2-3.6,50.8,11.2,60.6,15.9"/>
		<g>
			<path class="st19" d="M360.5,595.2c7.3-3.4,15.2-5.7,22.9-8.1c9.2-2.8,18.5-5.6,27.9-7.4c2.1-0.4,6.5-1.8,8.6-0.7
				c2.3,1.2,2.2,5.7,2.1,8c-0.3,4.8-2.2,7.4-6.4,9.8c-12.5,7.3-23.4,16-33.1,26.7c-6.7,7.3-16.8,7.4-26.1,8.5
				c-5.2,0.6-10.4,1.1-15.6,1.1c-12.2,0-24.4-0.8-36.5-3.1c-9-1.7-12.8-8.5-18.9-14.3c-5.1-4.9-11-8.8-16.8-12.9
				c-5.7-4.1-14.5-6.9-15.4-14.7c-0.3-2.4-0.7-7.6,1.8-9c0.8-0.5,2.4-0.2,3.3-0.1c10,0.7,20.1,4.2,29.6,7c8.9,2.7,18.2,5.3,26.7,9.3
				c0.6,0.3,1.1-0.6,0.5-0.9c-8.5-4-17.9-6.7-26.9-9.4c-9.6-2.9-19.8-6.3-29.9-7.1c-2-0.1-3.7-0.3-4.9,1.4
				c-2.4,3.4-1.8,10.7,0.3,14.1c1.3,2.2,3.8,3.4,5.9,4.6c4,2.2,7.5,4.9,11.2,7.5c7.9,5.6,14.5,11.5,21,18.6c5.6,6.1,12.4,6.9,20.3,8
				c7.2,0.9,14.5,1.9,21.8,1.9c4.7,0,9.4,0.1,14.1-0.3c8.6-0.7,18.6-0.9,26.9-3.7c7.5-2.5,11.6-10.3,17.3-15.3
				c6.8-6,14.7-11.9,22.6-16.3c5.4-3,8-5.6,8.2-12c0.1-2.7,0-7.2-3-8.4c-2.7-1-7.2,0.4-9.8,0.9c-6.4,1.3-12.7,3-19,4.8
				c-10.5,3-21.4,6-31.3,10.6C359.4,594.6,359.9,595.5,360.5,595.2L360.5,595.2z"/>
		</g>
	</g>
	<g>
		<path class="st20" d="M400.3,530c-0.3,0.7-0.8,1.2-2,1c-9.4-1.7-18.8-3.6-28.2-5.8c-0.1,3-0.4,6-0.4,9c0,2.8-0.1,5.6-0.2,8.4
			c-0.2,5.4-0.6,10.8-1.6,16.1c-2.4,14-1.8,29.1,0,43.3c-19.9,1.6-39.8,1.3-59.7-0.7c0.5-10.6,1.1-21.1,1.6-31.7
			c0.8-15.5,1.5-31.8-4.2-45.6c0,0-24.6,4.1-33.9,5c-0.4,0-0.9,0.1-1.3-0.2c-0.4-0.2-0.6-0.7-0.7-1.2c-1.3-3.9-2.6-7.8-4-11.7
			c4.5-4.6,38.8-22.5,41.3-23.9c6.6-3.5,32.5-4.4,32.5-4.4c4.6,0.3,9.2,0.8,13.8,1.6c7.6,1.3,15.2,3,20.9,8.1
			c4.5,4,19,14.8,21.5,16.6c1,0.7,5.4,3,5.4,4c-0.2,2.7-0.4,5.3-0.7,8C400.5,527,400.8,528.9,400.3,530z"/>
	</g>
	<path class="st41" d="M400.2,532.5l-2.6-0.8c-0.6-0.2-1-0.9-0.8-1.5l4.2-13c0.2-0.6,0.9-1,1.5-0.8l2.6,0.8c0.6,0.2,1,0.9,0.8,1.5
		l-4.2,13C401.5,532.4,400.9,532.7,400.2,532.5z"/>
	<path class="st41" d="M265.6,514.9l2.6-0.8c0.6-0.2,1.3,0.1,1.5,0.8l4.2,13c0.2,0.6-0.1,1.3-0.8,1.5l-2.6,0.8
		c-0.6,0.2-1.3-0.1-1.5-0.8l-4.2-13C264.6,515.8,265,515.1,265.6,514.9z"/>
</g>
<g id="FullProduct.psd">
	
		<image style="overflow:visible;" width="2532" height="2106" id="FullProduct" xlink:href="2FA447BD3C108F62.png"  transform="matrix(0.3347 0 0 0.3347 27.0125 -49.0476)">
	</image>
</g>
</svg>
